<?xml version="1.0" encoding="utf-8"?>
<!-- Generator: Adobe Illustrator 22.0.1, SVG Export Plug-In . SVG Version: 6.00 Build 0)  -->
<svg version="1.1" id="图层_1" xmlns="http://www.w3.org/2000/svg" xmlns:xlink="http://www.w3.org/1999/xlink" x="0px" y="0px"
	 viewBox="0 0 38 42" style="enable-background:new 0 0 38 42;" xml:space="preserve">
<style type="text/css">
	.st0{fill:#BDC1CC;}
</style>
<path class="st0" d="M34.7,0L34.7,0H3.3C1.5,0,0,1.5,0,3.3v37c0,0.6,0.4,1.2,0.9,1.5c0.6,0.3,1.2,0.2,1.7-0.1L8,37.7l4.4,3.8
	c0.6,0.6,1.6,0.5,2.2,0l4.2-3.8l4.8,3.9c0.6,0.5,1.6,0.5,2.2-0.1l4.2-3.8l5.3,4c0.3,0.2,0.6,0.3,1,0.3c0.3,0,0.5-0.1,0.8-0.2
	c0.6-0.3,0.9-0.9,0.9-1.5v-37C38,1.5,36.5,0,34.7,0z M27.3,26H10.7v0c-0.8-0.2-1.5-0.8-1.6-1.6c-0.2-1.1,0.5-2.2,1.6-2.4h16.7
	c0.8,0.2,1.5,0.8,1.6,1.6C29.2,24.7,28.5,25.8,27.3,26z M27.3,16H10.7c-0.8-0.2-1.5-0.8-1.6-1.6c-0.2-1.1,0.5-2.2,1.6-2.4h16.7
	c0.8,0.2,1.5,0.8,1.6,1.6C29.2,14.7,28.5,15.8,27.3,16z"/>
</svg>
