<svg xmlns="http://www.w3.org/2000/svg" width="42" height="38" viewBox="0 0 42 38">
  <metadata><?xpacket begin="﻿" id="W5M0MpCehiHzreSzNTczkc9d"?>
<x:xmpmeta xmlns:x="adobe:ns:meta/" x:xmptk="Adobe XMP Core 5.6-c138 79.159824, 2016/09/14-01:09:01        ">
   <rdf:RDF xmlns:rdf="http://www.w3.org/1999/02/22-rdf-syntax-ns#">
      <rdf:Description rdf:about=""/>
   </rdf:RDF>
</x:xmpmeta>
                                                                                                    
                                                                                                    
                                                                                                    
                                                                                                    
                                                                                                    
                                                                                                    
                                                                                                    
                                                                                                    
                                                                                                    
                                                                                                    
                                                                                                    
                                                                                                    
                                                                                                    
                                                                                                    
                                                                                                    
                                                                                                    
                                                                                                    
                                                                                                    
                                                                                                    
                                                                                                    
                           
<?xpacket end="w"?></metadata>
<defs>
    <style>
      .cls-1 {
        fill: #bdc1cc;
        fill-rule: evenodd;
      }
    </style>
  </defs>
  <path id="ico12" class="cls-1" d="M1457.06,4145h-34.12a4,4,0,0,0-3.94,4.07v29.86a4,4,0,0,0,3.94,4.07h34.12a4,4,0,0,0,3.94-4.07v-29.86A4,4,0,0,0,1457.06,4145Zm-8.06,4.99a4.01,4.01,0,1,1-4,4.01A4,4,0,0,1,1449,4149.99Zm-26,28.02s2.79-17.01,9.28-17.01c6.35,0,7.97,11.89,12.45,11.89,2.82,0,2.53-5.37,7.01-5.37,3.21,0,5.25,10.49,5.25,10.49H1423Z" transform="translate(-1419 -4145)"/>
</svg>
