<svg xmlns="http://www.w3.org/2000/svg" width="36" height="43" viewBox="0 0 36 43">
  <metadata><?xpacket begin="﻿" id="W5M0MpCehiHzreSzNTczkc9d"?>
<x:xmpmeta xmlns:x="adobe:ns:meta/" x:xmptk="Adobe XMP Core 5.6-c138 79.159824, 2016/09/14-01:09:01        ">
   <rdf:RDF xmlns:rdf="http://www.w3.org/1999/02/22-rdf-syntax-ns#">
      <rdf:Description rdf:about=""/>
   </rdf:RDF>
</x:xmpmeta>
                                                                                                    
                                                                                                    
                                                                                                    
                                                                                                    
                                                                                                    
                                                                                                    
                                                                                                    
                                                                                                    
                                                                                                    
                                                                                                    
                                                                                                    
                                                                                                    
                                                                                                    
                                                                                                    
                                                                                                    
                                                                                                    
                                                                                                    
                                                                                                    
                                                                                                    
                                                                                                    
                           
<?xpacket end="w"?></metadata>
<defs>
    <style>
      .cls-1 {
        fill: #bdc1cc;
        fill-rule: evenodd;
      }
    </style>
  </defs>
  <path id="ico13" class="cls-1" d="M492,4438H468a6.009,6.009,0,0,0-6,6.02v30.96a6.013,6.013,0,0,0,6,6.02h24a6.009,6.009,0,0,0,6-6.02v-30.96A6.009,6.009,0,0,0,492,4438Zm-2.006,32.99H469.008v-0.93a6.718,6.718,0,0,1,6.649-6.78h0.877a0.888,0.888,0,0,0,.876-0.9v-2.37a1.246,1.246,0,0,0-.5-1.03,6.815,6.815,0,0,1-2.587-5.56c0-3.55,1.48-6.42,5.184-6.42s5.185,2.87,5.185,6.42a6.817,6.817,0,0,1-2.587,5.56,1.261,1.261,0,0,0-.5,1.03v2.37a0.892,0.892,0,0,0,.877.9,7.594,7.594,0,0,1,7.52,7.67v0.04h0Z" transform="translate(-462 -4438)"/>
</svg>
