<svg xmlns="http://www.w3.org/2000/svg" width="15.812" height="12" viewBox="0 0 15.812 12">
  <metadata><?xpacket begin="﻿" id="W5M0MpCehiHzreSzNTczkc9d"?>
<x:xmpmeta xmlns:x="adobe:ns:meta/" x:xmptk="Adobe XMP Core 5.6-c138 79.159824, 2016/09/14-01:09:01        ">
   <rdf:RDF xmlns:rdf="http://www.w3.org/1999/02/22-rdf-syntax-ns#">
      <rdf:Description rdf:about=""/>
   </rdf:RDF>
</x:xmpmeta>
                                                                                                    
                                                                                                    
                                                                                                    
                                                                                                    
                                                                                                    
                                                                                                    
                                                                                                    
                                                                                                    
                                                                                                    
                                                                                                    
                                                                                                    
                                                                                                    
                                                                                                    
                                                                                                    
                                                                                                    
                                                                                                    
                                                                                                    
                                                                                                    
                                                                                                    
                                                                                                    
                           
<?xpacket end="w"?></metadata>
<defs>
    <style>
      .cls-1 {
        fill: #9397a4;
        fill-rule: evenodd;
      }
    </style>
  </defs>
  <path id="ico21" class="cls-1" d="M247.926,186a2,2,0,1,1-1.979,2,1.993,1.993,0,0,1,1.979-2m0-1a3,3,0,1,0,2.969,3,2.987,2.987,0,0,0-2.969-3h0ZM247.909,183c3.132,0,5.81,3.255,6.815,4.653a0.607,0.607,0,0,1,0,.688c-1.006,1.4-3.685,4.653-6.816,4.653s-5.809-3.254-6.815-4.652a0.609,0.609,0,0,1,0-.689c1.007-1.4,3.687-4.653,6.816-4.653m0-1c-3.584,0-6.521,3.544-7.616,5.064a1.622,1.622,0,0,0,0,1.867c1.1,1.525,4.032,5.066,7.616,5.066s6.52-3.541,7.616-5.066a1.616,1.616,0,0,0,0-1.865c-1.094-1.522-4.032-5.066-7.616-5.066h0Z" transform="translate(-240 -182)"/>
</svg>
