<?xml version="1.0" encoding="utf-8"?>
<!-- Generator: Adobe Illustrator 22.0.1, SVG Export Plug-In . SVG Version: 6.00 Build 0)  -->
<svg version="1.1" id="图层_1" xmlns="http://www.w3.org/2000/svg" xmlns:xlink="http://www.w3.org/1999/xlink" x="0px" y="0px"
	 viewBox="0 0 18 16" style="enable-background:new 0 0 18 16;" xml:space="preserve">
<style type="text/css">
	.st0{fill:#F24143;}
</style>
<g id="ico24">
	<path class="st0" d="M9,16c-0.3,0-0.6-0.1-0.9-0.3L8,15.6C7,15,6.1,14.2,5.3,13.5c-1.4-1.2-2.7-2.6-3.9-4.1
		C0.8,8.5,0.3,7.5,0.1,6.5C-0.2,5.2,0,3.9,0.7,2.8c1-1.8,3-2.9,5.1-2.8C6.9,0.1,8.1,0.5,9,1.2c0.8-0.5,1.6-0.9,2.5-1.1
		c1.1-0.2,2.2-0.1,3.2,0.4l0,0c2,1,3.3,3,3.2,5.3c-0.1,2.1-1.4,3.7-2.6,5c-1.1,1.2-2.2,2.3-3.4,3.3c-0.6,0.5-1.3,1.1-1.9,1.6
		l-0.1,0.1C9.7,15.9,9.3,16,9,16z"/>
</g>
</svg>
