<svg xmlns="http://www.w3.org/2000/svg" width="19" height="15" viewBox="0 0 19 15">
  <metadata><?xpacket begin="﻿" id="W5M0MpCehiHzreSzNTczkc9d"?>
<x:xmpmeta xmlns:x="adobe:ns:meta/" x:xmptk="Adobe XMP Core 5.6-c138 79.159824, 2016/09/14-01:09:01        ">
   <rdf:RDF xmlns:rdf="http://www.w3.org/1999/02/22-rdf-syntax-ns#">
      <rdf:Description rdf:about=""/>
   </rdf:RDF>
</x:xmpmeta>
                                                                                                    
                                                                                                    
                                                                                                    
                                                                                                    
                                                                                                    
                                                                                                    
                                                                                                    
                                                                                                    
                                                                                                    
                                                                                                    
                                                                                                    
                                                                                                    
                                                                                                    
                                                                                                    
                                                                                                    
                                                                                                    
                                                                                                    
                                                                                                    
                                                                                                    
                                                                                                    
                           
<?xpacket end="w"?></metadata>
<defs>
    <style>
      .cls-1 {
        fill: #fff;
        fill-rule: evenodd;
      }
    </style>
  </defs>
  <path id="ico23" class="cls-1" d="M1209.03,860h10.05c-0.69,0,2.08-.128,2.89-6.82a1.7,1.7,0,0,0-1.87-2.18h-11.86l-0.36-1.12a0.926,0.926,0,0,0-.84-0.88H1204a1,1,0,0,0,0,2h2.14l2.02,8.1A0.932,0.932,0,0,0,1209.03,860Zm11.03-7c-0.54,4.24-1.8,5-1.8,5h-8.35l-1.43-5h11.58Zm-9.56,8a1.5,1.5,0,1,0,1.5,1.5A1.51,1.51,0,0,0,1210.5,861Zm7,0a1.5,1.5,0,1,0,1.51,1.5A1.5,1.5,0,0,0,1217.5,861Z" transform="translate(-1203 -849)"/>
</svg>
