<svg xmlns="http://www.w3.org/2000/svg" width="20" height="20" viewBox="0 0 20 20">
  <metadata><?xpacket begin="﻿" id="W5M0MpCehiHzreSzNTczkc9d"?>
<x:xmpmeta xmlns:x="adobe:ns:meta/" x:xmptk="Adobe XMP Core 5.6-c138 79.159824, 2016/09/14-01:09:01        ">
   <rdf:RDF xmlns:rdf="http://www.w3.org/1999/02/22-rdf-syntax-ns#">
      <rdf:Description rdf:about=""/>
   </rdf:RDF>
</x:xmpmeta>
                                                                                                    
                                                                                                    
                                                                                                    
                                                                                                    
                                                                                                    
                                                                                                    
                                                                                                    
                                                                                                    
                                                                                                    
                                                                                                    
                                                                                                    
                                                                                                    
                                                                                                    
                                                                                                    
                                                                                                    
                                                                                                    
                                                                                                    
                                                                                                    
                                                                                                    
                                                                                                    
                           
<?xpacket end="w"?></metadata>
<defs>
    <style>
      .cls-1 {
        fill: #fff;
        fill-rule: evenodd;
      }
    </style>
  </defs>
  <path id="ico37" class="cls-1" d="M250,638a10,10,0,1,1-10,10A10,10,0,0,1,250,638Zm0,2a8,8,0,1,1-8,8A8,8,0,0,1,250,640Zm-0.5,3a0.5,0.5,0,0,1,.5.5v5a0.5,0.5,0,0,1-1,0v-5A0.5,0.5,0,0,1,249.5,643Zm0,5h6a0.5,0.5,0,0,1,0,1h-6A0.5,0.5,0,0,1,249.5,648Z" transform="translate(-240 -638)"/>
</svg>
