<svg xmlns="http://www.w3.org/2000/svg" width="18" height="16" viewBox="0 0 18 16">
  <metadata><?xpacket begin="﻿" id="W5M0MpCehiHzreSzNTczkc9d"?>
<x:xmpmeta xmlns:x="adobe:ns:meta/" x:xmptk="Adobe XMP Core 5.6-c138 79.159824, 2016/09/14-01:09:01        ">
   <rdf:RDF xmlns:rdf="http://www.w3.org/1999/02/22-rdf-syntax-ns#">
      <rdf:Description rdf:about=""/>
   </rdf:RDF>
</x:xmpmeta>
                                                                                                    
                                                                                                    
                                                                                                    
                                                                                                    
                                                                                                    
                                                                                                    
                                                                                                    
                                                                                                    
                                                                                                    
                                                                                                    
                                                                                                    
                                                                                                    
                                                                                                    
                                                                                                    
                                                                                                    
                                                                                                    
                                                                                                    
                                                                                                    
                                                                                                    
                                                                                                    
                           
<?xpacket end="w"?></metadata>
<defs>
    <style>
      .cls-1 {
        fill: #fff;
        fill-rule: evenodd;
      }
    </style>
  </defs>
  <path id="ico36" class="cls-1" d="M887,390.333a3.358,3.358,0,0,1-3.429,3.282c-0.075,0-.354,0-0.428,0-0.625,2.31-1.73,4.787-4.143,5.385v1h3c1.487,0,1.343,1-.144,1h-7.717c-1.4,0-1.538-1-.139-1h3v-1c-2.413-.6-3.518-3.075-4.143-5.385-0.074,0-.358,0-0.433,0A3.357,3.357,0,0,1,869,390.329a2.789,2.789,0,0,1,2.572-2.868l0-.82A1.68,1.68,0,0,1,873.282,385h9.431a1.68,1.68,0,0,1,1.715,1.641v0.82A2.785,2.785,0,0,1,887,390.333Zm-16.29,0a2.49,2.49,0,0,0,2.147,2.052v-3.693C872.1,388.876,870.713,389.585,870.71,390.333Zm12.433-1.641v3.693c0.947-.015,2.587-1.556,2.571-2.462C885.7,389.193,883.88,388.883,883.143,388.692Z" transform="translate(-869 -385)"/>
</svg>
