<svg id="ico59" xmlns="http://www.w3.org/2000/svg" width="194" height="162" viewBox="0 0 194 162">
  <metadata><?xpacket begin="﻿" id="W5M0MpCehiHzreSzNTczkc9d"?>
<x:xmpmeta xmlns:x="adobe:ns:meta/" x:xmptk="Adobe XMP Core 5.6-c138 79.159824, 2016/09/14-01:09:01        ">
   <rdf:RDF xmlns:rdf="http://www.w3.org/1999/02/22-rdf-syntax-ns#">
      <rdf:Description rdf:about=""/>
   </rdf:RDF>
</x:xmpmeta>
                                                                                                    
                                                                                                    
                                                                                                    
                                                                                                    
                                                                                                    
                                                                                                    
                                                                                                    
                                                                                                    
                                                                                                    
                                                                                                    
                                                                                                    
                                                                                                    
                                                                                                    
                                                                                                    
                                                                                                    
                                                                                                    
                                                                                                    
                                                                                                    
                                                                                                    
                                                                                                    
                           
<?xpacket end="w"?></metadata>
<defs>
    <style>
      .cls-1 {
        fill: #e0e8ec;
      }

      .cls-2, .cls-3 {
        fill: #ccd9df;
      }

      .cls-2, .cls-3, .cls-5 {
        fill-rule: evenodd;
      }

      .cls-2 {
        opacity: 0.5;
      }

      .cls-4 {
        fill: #f3f6f8;
      }

      .cls-5 {
        fill: #f6f9fa;
      }
    </style>
  </defs>
  <ellipse id="椭圆_8" data-name="椭圆 8" class="cls-1" cx="91" cy="147" rx="88" ry="15"/>
  <path id="矩形_2" data-name="矩形 2" class="cls-2" d="M868,1425h8a1,1,0,0,1,0,2h-8A1,1,0,0,1,868,1425Zm4-4a1,1,0,0,1,1,1v8a1,1,0,0,1-2,0v-8A1,1,0,0,1,872,1421Z" transform="translate(-866 -1318)"/>
  <path id="矩形_2-2" data-name="矩形 2" class="cls-3" d="M1049,1428h10a1,1,0,0,1,0,2h-10A1,1,0,0,1,1049,1428Zm5-5a1,1,0,0,1,1,1v10a1,1,0,0,1-2,0v-10A1,1,0,0,1,1054,1423Z" transform="translate(-866 -1318)"/>
  <path id="矩形_2-3" data-name="矩形 2" class="cls-3" d="M867.5,1324h10a1.5,1.5,0,0,1,0,3h-10A1.5,1.5,0,0,1,867.5,1324Zm5-5a1.5,1.5,0,0,1,1.5,1.5v10a1.5,1.5,0,0,1-3,0v-10A1.5,1.5,0,0,1,872.5,1319Z" transform="translate(-866 -1318)"/>
  <path id="矩形_15" data-name="矩形 15" class="cls-4" d="M22,45H166a0,0,0,0,1,0,0v86a15,15,0,0,1-15,15H37a15,15,0,0,1-15-15V45A0,0,0,0,1,22,45Z"/>
  <path id="形状_13" data-name="形状 13" class="cls-5" d="M887,1363h146v-8l-2-5-3-4-4-2-6-1H963l-4-1-3-3-1-4-1-4-3-6-3-3-2-1-4-2H898l-7,5-3,6-1,7v26Z" transform="translate(-866 -1318)"/>
  <path id="形状_12" data-name="形状 12" class="cls-5" d="M998.005,1409a15,15,0,1,0-14.991-15,15,15,0,0,0,14.991,15h0Z" transform="translate(-866 -1318)"/>
  <path id="形状_12-2" data-name="形状 12" class="cls-3" d="M911.061,1431.23l17.85-18.47,45.756,34.18c2.317,1.53,2.593,1.14,3.145.39a3.006,3.006,0,0,0,.36-0.58,5.8,5.8,0,0,0-1.8-1.57l-0.161-.12-17.024-13.27L974,1417.39l6.984,5.04a2.34,2.34,0,0,0,1.843-.4,1.519,1.519,0,0,0,.063-1.22c-3.02-2.16-7.822-5.59-8.5-6.05a1.351,1.351,0,0,0-1.314-.17l-16.343,15.51-25.957-19.61a8.221,8.221,0,0,0-.792-0.48,8.466,8.466,0,0,0-1.889.29l-0.054.02a1.807,1.807,0,0,0-.223.14l-18.62,19.31a0.572,0.572,0,0,0-.2.44,1.153,1.153,0,0,0,.395.8A1.221,1.221,0,0,0,911.061,1431.23ZM940.267,1320c7.212,0,12.987,7.51,13.659,14.25l0.013,0.12v0.01l0,0.04,0,0.05c0.013,0.16.025,0.32,0.033,0.48l0,0.06,0.006,0.06c0.027,0.25.064,0.51,0.11,0.75l0.024,0.23h0.02a9.834,9.834,0,0,0,9.654,7.82h54.475a13.708,13.708,0,0,1,13.73,13.69v91.75a13.725,13.725,0,0,1-13.73,13.69H901.728A13.723,13.723,0,0,1,888,1449.31V1335.62c0-7.22,6-15.62,13.728-15.62h38.539m0-2H901.728c-8.685,0-15.728,8.96-15.728,17.62v113.69A15.713,15.713,0,0,0,901.728,1465H1018.27a15.712,15.712,0,0,0,15.73-15.69v-91.75a15.712,15.712,0,0,0-15.73-15.69H963.8a7.856,7.856,0,0,1-7.819-7.01c-0.009-.19-0.023-0.38-0.038-0.56,0-.09-0.006-0.18-0.006-0.28v0.03h-0.016c-0.791-7.93-7.5-16.05-15.649-16.05h0ZM886,1362h148v2H886v-2Zm112.005,47a15,15,0,1,0-14.991-15,15,15,0,0,0,14.991,15h0Zm0-28.02A13.015,13.015,0,1,1,985,1394a13.019,13.019,0,0,1,13.007-13.02h0Z" transform="translate(-866 -1318)"/>
</svg>
