<svg id="ico54" xmlns="http://www.w3.org/2000/svg" width="192" height="160" viewBox="0 0 192 160">
  <metadata><?xpacket begin="﻿" id="W5M0MpCehiHzreSzNTczkc9d"?>
<x:xmpmeta xmlns:x="adobe:ns:meta/" x:xmptk="Adobe XMP Core 5.6-c138 79.159824, 2016/09/14-01:09:01        ">
   <rdf:RDF xmlns:rdf="http://www.w3.org/1999/02/22-rdf-syntax-ns#">
      <rdf:Description rdf:about=""/>
   </rdf:RDF>
</x:xmpmeta>
                                                                                                    
                                                                                                    
                                                                                                    
                                                                                                    
                                                                                                    
                                                                                                    
                                                                                                    
                                                                                                    
                                                                                                    
                                                                                                    
                                                                                                    
                                                                                                    
                                                                                                    
                                                                                                    
                                                                                                    
                                                                                                    
                                                                                                    
                                                                                                    
                                                                                                    
                                                                                                    
                           
<?xpacket end="w"?></metadata>
<defs>
    <style>
      .cls-1 {
        fill: #e5f6eb;
      }

      .cls-1, .cls-2, .cls-3, .cls-4 {
        fill-rule: evenodd;
      }

      .cls-2 {
        fill: #fff;
      }

      .cls-3, .cls-4 {
        fill: #2baf24;
      }

      .cls-4 {
        opacity: 0.5;
      }
    </style>
  </defs>
  <path id="_02" data-name="02" class="cls-1" d="M1036,1420v80l-53-36-1-1,9-8Zm-144,0v80l53-36,1-1-9-8Zm143,80-53-37-10-7-5-3h-5l-70,47v6l2,4,3,2,2,1h129l3-1,2-2,2-3,1-3v-3Zm-71-116.01a28,28,0,1,1-28,28A28.029,28.029,0,0,1,964,1383.99Z" transform="translate(-867 -1354)"/>
  <path id="形状_9" data-name="形状 9" class="cls-2" d="M981,1463l40-32v-57l-2-4-2-1H912l-5,2v60l40,32,15-10h3l3,1Z" transform="translate(-867 -1354)"/>
  <path id="形状_8" data-name="形状 8" class="cls-3" d="M1027,1514H901a10,10,0,0,1-10-10v-83h2v83a8,8,0,0,0,8,8h126a8,8,0,0,0,8-8v-83h2v83A10,10,0,0,1,1027,1514Zm-7-81v-59a4,4,0,0,0-4-4H950a1,1,0,0,1,0-2h66a6,6,0,0,1,6,6v59h-2Zm-79-62a2,2,0,1,1,2-2A2,2,0,0,1,941,1371Zm23,12.99a28,28,0,1,1-28,28A28.029,28.029,0,0,1,964,1383.99Zm0,54.02a26.005,26.005,0,1,0-25.984-26A26.027,26.027,0,0,0,964,1438.01Zm-11.314-27.18,7.779,7.78,14.849-14.85a1,1,0,0,1,1.414,1.41l-15.556,15.56a1,1,0,0,1-1.415,0l-8.485-8.49A1,1,0,1,1,952.686,1410.83ZM932,1370H912a4,4,0,0,0-4,4v59h-2v-59a6,6,0,0,1,6-6h20A1,1,0,0,1,932,1370Zm103,131-0.35-.24a1,1,0,0,1-.65.24h-32a1,1,0,0,1,0-2h30.09l-64.225-44.06a6.023,6.023,0,0,0-6.737,0L893,1501h-1v-2l68.005-45.71a8.1,8.1,0,0,1,8.983,0L1036,1499v2h-1Zm-42-3a2,2,0,1,1-2,2A2,2,0,0,1,993,1498Zm-102.013-77.41,1.21-1.6,55.816,43.42-1.21,1.6Zm146.023,0-1.21-1.6-55.813,43.42,1.21,1.6Zm-146.023-.18,1.21,1.6,15.816-12.42-1.21-1.6Zm146.023,0-1.21,1.6-15.81-12.42,1.21-1.6Z" transform="translate(-867 -1354)"/>
  <path id="矩形_2" data-name="矩形 2" class="cls-4" d="M868,1473h8a1,1,0,0,1,0,2h-8A1,1,0,0,1,868,1473Zm4-4a1,1,0,0,1,1,1v8a1,1,0,0,1-2,0v-8A1,1,0,0,1,872,1469Z" transform="translate(-867 -1354)"/>
  <path id="矩形_2-2" data-name="矩形 2" class="cls-3" d="M1048,1479h10a1,1,0,0,1,0,2h-10A1,1,0,0,1,1048,1479Zm5-5a1,1,0,0,1,1,1v10a1,1,0,0,1-2,0v-10A1,1,0,0,1,1053,1474Z" transform="translate(-867 -1354)"/>
  <path id="矩形_2-3" data-name="矩形 2" class="cls-3" d="M886.5,1359h10a1.5,1.5,0,0,1,0,3h-10A1.5,1.5,0,0,1,886.5,1359Zm5-5a1.5,1.5,0,0,1,1.5,1.5v10a1.5,1.5,0,0,1-3,0v-10A1.5,1.5,0,0,1,891.5,1354Z" transform="translate(-867 -1354)"/>
</svg>
