<svg xmlns="http://www.w3.org/2000/svg" width="15.81" height="12" viewBox="0 0 15.81 12">
  <metadata><?xpacket begin="﻿" id="W5M0MpCehiHzreSzNTczkc9d"?>
<x:xmpmeta xmlns:x="adobe:ns:meta/" x:xmptk="Adobe XMP Core 5.6-c138 79.159824, 2016/09/14-01:09:01        ">
   <rdf:RDF xmlns:rdf="http://www.w3.org/1999/02/22-rdf-syntax-ns#">
      <rdf:Description rdf:about=""/>
   </rdf:RDF>
</x:xmpmeta>
                                                                                                    
                                                                                                    
                                                                                                    
                                                                                                    
                                                                                                    
                                                                                                    
                                                                                                    
                                                                                                    
                                                                                                    
                                                                                                    
                                                                                                    
                                                                                                    
                                                                                                    
                                                                                                    
                                                                                                    
                                                                                                    
                                                                                                    
                                                                                                    
                                                                                                    
                                                                                                    
                           
<?xpacket end="w"?></metadata>
<defs>
    <style>
      .cls-1 {
        fill: #9397a4;
        fill-rule: evenodd;
      }
    </style>
  </defs>
  <path id="ico52" class="cls-1" d="M1121.93,1673a2,2,0,1,1-1.98,2,1.987,1.987,0,0,1,1.98-2m0-1a3,3,0,1,0,2.96,3,2.983,2.983,0,0,0-2.96-3h0Zm-0.02-2c3.13,0,5.81,3.26,6.81,4.65a0.585,0.585,0,0,1,0,.69c-1,1.4-3.68,4.66-6.81,4.66s-5.81-3.26-6.82-4.66a0.619,0.619,0,0,1,0-.69c1.01-1.39,3.69-4.65,6.82-4.65m0-1c-3.58,0-6.52,3.54-7.62,5.06a1.641,1.641,0,0,0,0,1.87c1.1,1.53,4.04,5.07,7.62,5.07s6.52-3.54,7.62-5.07a1.625,1.625,0,0,0,0-1.86c-1.1-1.53-4.04-5.07-7.62-5.07h0Z" transform="translate(-1114 -1669)"/>
</svg>
