<svg xmlns="http://www.w3.org/2000/svg" width="42" height="42" viewBox="0 0 42 42">
  <metadata><?xpacket begin="﻿" id="W5M0MpCehiHzreSzNTczkc9d"?>
<x:xmpmeta xmlns:x="adobe:ns:meta/" x:xmptk="Adobe XMP Core 5.6-c138 79.159824, 2016/09/14-01:09:01        ">
   <rdf:RDF xmlns:rdf="http://www.w3.org/1999/02/22-rdf-syntax-ns#">
      <rdf:Description rdf:about=""/>
   </rdf:RDF>
</x:xmpmeta>
                                                                                                    
                                                                                                    
                                                                                                    
                                                                                                    
                                                                                                    
                                                                                                    
                                                                                                    
                                                                                                    
                                                                                                    
                                                                                                    
                                                                                                    
                                                                                                    
                                                                                                    
                                                                                                    
                                                                                                    
                                                                                                    
                                                                                                    
                                                                                                    
                                                                                                    
                                                                                                    
                           
<?xpacket end="w"?></metadata>
<defs>
    <style>
      .cls-1 {
        fill: #f4c125;
        fill-rule: evenodd;
      }
    </style>
  </defs>
  <path id="ico65" class="cls-1" d="M411,1231a21,21,0,1,1-21,21A21,21,0,0,1,411,1231Zm10.126,19.52h-4.242a0.85,0.85,0,0,0-.872.83v0.26a0.85,0.85,0,0,0,.872.83h4.242a0.85,0.85,0,0,0,.871-0.83v-0.26A0.85,0.85,0,0,0,421.126,1250.52Zm-9.843-7.16c-1.32,1-4.081,2.4-6.068,3.75h0a0.755,0.755,0,0,1-.068.1,1.951,1.951,0,0,1-1.616.48h-2.49a0.877,0.877,0,0,0-1.035.92v5.72a0.89,0.89,0,0,0,1.035.96h2.5a1.946,1.946,0,0,1,1.607.47c0.023,0.01.045,0.09,0.068,0.1h0c1.924,1.35,4.7,2.86,6.067,3.82,0.411,0.29,1.776.8,1.776-.99v-14.42c0-1.78-1.376-1.21-1.776-.91h0Zm3.917,3.94a0.651,0.651,0,0,0,1,.21l3.487-2.8a0.923,0.923,0,0,0,.183-1.16l-0.128-.21a0.65,0.65,0,0,0-1-.21l-3.488,2.8a0.922,0.922,0,0,0-.182,1.16l0.127,0.21h0Zm1,8.16a0.656,0.656,0,0,0-1,.21l-0.127.21a0.92,0.92,0,0,0,.182,1.16l3.487,2.8a0.65,0.65,0,0,0,1-.21l0.128-.21a0.923,0.923,0,0,0-.182-1.16l-3.488-2.8h0Z" transform="translate(-390 -1231)"/>
</svg>
