<?xml version="1.0" encoding="utf-8"?>
<!-- Generator: Adobe Illustrator 22.0.1, SVG Export Plug-In . SVG Version: 6.00 Build 0)  -->
<svg version="1.1" id="ico7" xmlns="http://www.w3.org/2000/svg" xmlns:xlink="http://www.w3.org/1999/xlink" x="0px" y="0px"
	 viewBox="0 0 72 64" style="enable-background:new 0 0 72 64;" xml:space="preserve">
<style type="text/css">
	.st0{fill:#FFFFFF;}
</style>
<g>
	<path class="st0" d="M70,0H2C0.9,0,0,0.9,0,2v60c0,1.1,0.9,2,2,2h68c1.1,0,2-0.9,2-2V2C72,0.9,71.1,0,70,0z M68,59c0,0.6-0.4,1-1,1
		H5c-0.6,0-1-0.4-1-1V5c0-0.6,0.4-1,1-1h62c0.6,0,1,0.4,1,1V59z"/>
	<path class="st0" d="M18,24c3.9,0,7-3.1,7-7s-3.1-7-7-7s-7,3.1-7,7S14.1,24,18,24z M18,14c1.7,0,3,1.3,3,3s-1.3,3-3,3s-3-1.3-3-3
		S16.3,14,18,14z"/>
	<rect x="21" y="52" class="st0" width="44" height="4"/>
	<rect x="39" y="45" class="st0" width="26" height="4"/>
	<polygon class="st0" points="24.8,41.4 24.7,41.5 27.3,44.5 47.3,26.3 61.5,41.4 64.4,38.6 47.4,20.6 44.5,23.4 44.6,23.4 
		27.7,38.7 24.1,34.7 24.2,34.6 21.8,31.4 7.8,43.4 10.2,46.6 21.1,37.3 	"/>
</g>
</svg>
