<svg xmlns="http://www.w3.org/2000/svg" width="150" height="37" viewBox="0 0 150 37">
  <metadata><?xpacket begin="﻿" id="W5M0MpCehiHzreSzNTczkc9d"?>
<x:xmpmeta xmlns:x="adobe:ns:meta/" x:xmptk="Adobe XMP Core 5.6-c140 79.160451, 2017/05/06-01:08:21        ">
   <rdf:RDF xmlns:rdf="http://www.w3.org/1999/02/22-rdf-syntax-ns#">
      <rdf:Description rdf:about=""/>
   </rdf:RDF>
</x:xmpmeta>
                                                                                                    
                                                                                                    
                                                                                                    
                                                                                                    
                                                                                                    
                                                                                                    
                                                                                                    
                                                                                                    
                                                                                                    
                                                                                                    
                                                                                                    
                                                                                                    
                                                                                                    
                                                                                                    
                                                                                                    
                                                                                                    
                                                                                                    
                                                                                                    
                                                                                                    
                                                                                                    
                           
<?xpacket end="w"?></metadata>
<defs>
    <style>
      .cls-1 {
        fill: #e7292b;
        fill-rule: evenodd;
      }
    </style>
  </defs>
  <path id="red" class="cls-1" d="M42.766,22.249a134.222,134.222,0,0,0-14.831-.723,40.076,40.076,0,0,0-6.107.189c-3.908.706-3.123,0.293-6.848,2.446-0.1.06-.183,0-0.183-0.19C14.91,18,27.717,20.053,42.173,20.406a4.376,4.376,0,0,0-.192-1.507,3.093,3.093,0,0,1-.183-0.56c-7.852,0-24-2.179-27.385,2.816-0.079.138-.236,0.293-0.375,0a2.888,2.888,0,0,1,.375-2.067c1.1-1.886,7.372-3.186,18.443-2.816,6.273,0.207,7.738.293,8.183,0a1.706,1.706,0,0,0-.384-1.5l-0.192-.379c-8.506,0-23.555-1.137-27,3.565a0.387,0.387,0,0,1-.358.121,0.383,0.383,0,0,1-.192-0.379c0.061-2.764,2.015-3.04,4.179-3.746,4.362-1.447,10.356-1.326,15.782-1.318,1.535,0,4.938.112,6.849,0a3.54,3.54,0,0,0-.759-1.877c-7.381,0-14.465-1.051-21.68,1.318-4,1.309-4.772,3.014-5.13,3.376-0.114.215-1.745-6.028,11.027-6.028,1.2,0,10.05-.181,14.831-0.37a3.052,3.052,0,0,0-.925-1.826c-6.046,0-15.2-.155-19.778,1.5A10.9,10.9,0,0,0,11.6,12.672c0.271,0.491-1.4-1.722.951-3.944,4.3-4.039,18.809-3.376,19.019-3.376,0.079,0,.07-0.112,0-0.189C31.032,4.611,29.357,1.029,21.3.1A23.1,23.1,0,0,0,11.8,1.408C5.078,3.518-2.46,12.991.768,23.558a19.165,19.165,0,0,0,11.411,12.2C23.154,40.2,34.47,32.11,36.511,23.937c2.347,0,4.414.431,6.465,0.56A6.31,6.31,0,0,0,42.766,22.249ZM22.8,26.555c0,0.448-4.72,1.361-5.9-1.128,0.2-1.921,3.708-2.153,5.9-2.067v3.2Zm38.141,7.8c-0.9-.888-0.227-1.553.134-2.16q2.62-4.4,5.332-8.754c0.406-.654.828-1.131-0.4-1.306a0.847,0.847,0,0,1-.732-1.236c0.346-1.176,1.192-2.458-.344-3.518a1.089,1.089,0,0,1-.033-1.03,4.533,4.533,0,0,0,.306-3.831c1.376,0.769,1.976,1.539,1.2,2.927-0.3.537-.912,1.282,0.407,1.619,0.743,0.19.686,0.917,0.351,1.54q-0.214.4-.415,0.806c-0.664,1.336-.062,2.241,1.473,2.233a0.65,0.65,0,0,0,.692-0.659,81.536,81.536,0,0,1,3.4-11.62,1.1,1.1,0,0,0-.256-0.938c-0.984,1.044-1.96,2.1-2.959,3.125a1.787,1.787,0,0,1-1.1.8,1.443,1.443,0,0,1-1.529-.513c-0.272-.5.208-0.834,0.542-1.157a21.861,21.861,0,0,1,5.6-3.745,1.3,1.3,0,0,1,1.656.309c0.547,0.512.2,0.848-.013,1.321a47.563,47.563,0,0,0-3.8,13.5c-0.206,1.646-.55,1.859-2.105,1.442-0.918-.246-0.995.552-1.257,1.028A70.193,70.193,0,0,1,60.937,34.357Zm6.942-7.642a10.552,10.552,0,0,1,2.26,3.6,1.491,1.491,0,0,0,1.858.9c3.588-.579,4.512-2.08,4.1-5.9a7.294,7.294,0,0,1-.01-0.93c0.005-.255,0-0.541.375-0.531a0.516,0.516,0,0,1,.532.463c0.311,1.82.612,3.641,0.926,5.46a0.872,0.872,0,0,1-.612.955c-2.138,1.152-4.521,1.311-6.859,1.6a1.314,1.314,0,0,1-1.162-.925A13.6,13.6,0,0,1,67.879,26.715ZM144.05,9.258l-0.178-.005c-1.109-1.009-1.561.914-2.609,0.469,0.359-1.838-1.415-2.653-2.176-4.018-0.27-.483-1.051-0.9-0.66-1.467a1.572,1.572,0,0,1,2.116-.218,15.078,15.078,0,0,1,2.782,1.6c0.96,0.758,2.353,1.567.764,3.042A1.128,1.128,0,0,0,144.05,9.258ZM56.7,3.98a2.26,2.26,0,0,1,2.406,1.453c0.554,1.042-.577,1.75-0.684,2.689-0.031.276-.512,0.193-0.824,0.1a10.584,10.584,0,0,1-4.257-2.677c-0.433-.411-0.666-0.83.29-0.982A13.549,13.549,0,0,1,56.7,3.98Zm5.8,8.952a1.625,1.625,0,0,1,1.132,1.6c0.212,2.345.542,4.679,0.819,7.019,0.048,0.407.066,0.817,0.082,1.226a0.679,0.679,0,0,1-.507.686c-0.407.128-.515-0.271-0.646-0.52A14.974,14.974,0,0,1,62.1,15.915,20.739,20.739,0,0,1,62.509,12.932Zm21.574-4.37A22.364,22.364,0,0,1,87.3,15c0.086,0.316.108,0.761-.455,0.774s-1.179.111-1.4-.622a23.807,23.807,0,0,1-.888-3.236C84.4,10.817,84.144,9.748,84.082,8.562Zm-1.968,3.565c1.276,0.879,2.463,4.516,2.089,5.753a0.829,0.829,0,0,1-.781.575,1.214,1.214,0,0,1-1.075-1.127c-0.064-.971-0.008-1.948-0.031-2.922A5.083,5.083,0,0,0,82.115,12.127Zm56.958,14.188-0.279.243a1.78,1.78,0,0,0-2.5.763,2.51,2.51,0,0,1-.738.78c-0.428.3-.742,1.312-1.43,0.5a1.454,1.454,0,0,1,.08-2.2,13.824,13.824,0,0,1,2.426-1.281,1.6,1.6,0,0,1,.568-0.042C137.165,26.475,138.562,25.732,139.073,26.315ZM113.406,8.167c1.283-1.565,2.578-3.121,3.843-4.7,0.569-.711,1.083-0.171,1.441.125a1.05,1.05,0,0,1-.042,1.639,3.459,3.459,0,0,1-1.208.621A14.464,14.464,0,0,0,113.406,8.167ZM97.787,14.889a4.978,4.978,0,0,0-2.133.172c-4.309,1.256-7.774,3.861-11.12,6.688-0.328.277-.6,1.158-1.288,0.43-0.33-.35-0.532-0.127-0.763.072-1.372,1.183-2.4,2.538-2.214,4.483,0.028,0.292-.066.64,0.409,0.683a0.628,0.628,0,0,0,.795-0.536,1.949,1.949,0,0,1,1.145-1.568c1.372-.467,2.119-1.594,3.049-2.511a58.459,58.459,0,0,1,5.618-4.855,1.79,1.79,0,0,1,2.415-.283,10.771,10.771,0,0,0-3.516,3.129,31.628,31.628,0,0,0-2.966,5.5c-0.245.6-.259,1.054,0.332,1.255,0.626,0.213.455-.525,0.609-0.787A17.453,17.453,0,0,0,89.1,24.5c0.193-.473.1-1.425,0.833-1.188,1.009,0.327.162,1.1,0.067,1.675a2.149,2.149,0,0,1-.223.561c-0.426.878-.961,1.741,0.424,2.333,0.4,0.17.265,0.606,0.044,0.939-0.4.594-.8,1.185-1.171,1.791-1.008,1.628-2.76,2.645-3.632,4.382h2.183c1.135-1.513,2.387-2.438,4.4-1.338a13.228,13.228,0,0,0,2.93.881c0.712,0.191,2.159-1,1.78-1.422-0.754-.837-0.307-1.631-0.217-2.462,0.031-.288.156-0.694-0.185-0.832-0.511-.207-0.541.321-0.709,0.6a2.851,2.851,0,0,0-.424.821c-0.313,1.534-1.15,1.913-2.569,1.289a7.568,7.568,0,0,0-1.494-.336,0.374,0.374,0,0,1-.419-0.308c-0.249-1.2,1.622-3.271,2.755-2.912a1.255,1.255,0,0,0,1.825-1.03c0.6-2.37,1.246-4.739,1.65-7.145,0.361-2.151.027-2.376-2.2-2.276a0.914,0.914,0,0,1-.3-0.232c0.794-1.238,2.213-1.367,3.392-1.857,0.413-.172.745-0.171,0.721-0.737A0.8,0.8,0,0,0,97.787,14.889Zm-2.4,4.978a48.136,48.136,0,0,1-2.214,7.039c-0.291.707-.434,1.209-1.437,0.357-1.224-1.039-1.475-1.778-.373-2.944A1.057,1.057,0,0,0,91.2,22.6c-0.721-.54-0.342-0.96-0.037-1.531C92.132,19.258,93.745,19.8,95.385,19.868Zm25.572,11.706c-0.355-1.588-1.609-.78-2.5-0.914-1-.15-2.747.379-2.859-0.239-0.206-1.129.7-2.346,1.414-3.4a5.046,5.046,0,0,1,.659-0.657c1.664-1.672,1.514-2.67-.745-3.568-1-.4-1.034-0.8-0.743-1.679A2.544,2.544,0,0,1,117.6,19.6c1.02-.515,1.5-1.157.967-2.351-0.378-.847-0.2-2.318-1.381-2.24-0.806.053-1.245,1.362-1.418,2.314-0.5,2.729-2.617,4.052-4.668,5.442a0.66,0.66,0,0,1-.855.072,0.788,0.788,0,0,1-.09-0.866c0.309-1.128.666-2.246,0.9-3.389a2.769,2.769,0,0,1,1.628-2.045,33.536,33.536,0,0,0,7.462-5.45,1.573,1.573,0,0,0,.228-2.316c-0.77-1.032-1.6-1.528-2.981-.795-2.476,1.316-3.729,3.616-5.158,5.806-0.438.671-.635,1.521-1.488,1.891a55.472,55.472,0,0,0-9.5,5.63,1.063,1.063,0,0,1-.968.316c-1.02-.3-1.256.805-1.944,1.134-0.381.182,0.171,0.591,0.407,0.811,0.7,0.647,1.225,0,1.761-.3,1.292-.735,2.56-1.51,3.839-2.268,1.933-1.146,3.868-2.29,6-3.555-0.405,1.568-.646,2.817-1.063,4.006a1.982,1.982,0,0,0,.414,2.124c0.572,0.636,1.269.1,1.883-.061,1.264-.338,2.227-1.291,3.428-1.906a2.706,2.706,0,0,1-.258,1.606c-0.651,1.905-2.838,3.583-.971,5.9a0.413,0.413,0,0,1-.054.292,2.365,2.365,0,0,0,.845,3.106c0.8,0.629.611,1.094-.351,1.333a5,5,0,0,0-.807.354c2.74,0.227,4.978-1.154,7.388-1.958C121.348,32.058,121.011,31.815,120.957,31.574Zm-4.623-21.069a1.372,1.372,0,0,1,1.633-.517c0.547,0.259.914,0.558,0.364,1.123a15.593,15.593,0,0,1-4.944,3.171A12.522,12.522,0,0,1,116.334,10.505ZM61.187,21.136c-0.471-.441-0.783.1-1.158,0.319-0.4.228-.683,0.832-1.376,0.462,0.8-2.858,1.665-5.691,1.435-8.724a1.9,1.9,0,0,0-1.281-2.009,1.734,1.734,0,0,0-1.985.806,22.532,22.532,0,0,1-5.687,5.2c-1.309.727-.988,1.348-0.316,2.1,0.785,0.883,1.653,1.535,2.85.466a8.026,8.026,0,0,0,1.419-1.4c0.632-.928,1.284-1.846,1.978-2.729,0.323-.411.8-0.843,1.181-0.05,0.412,0.853-.609,4.08-1.553,4.426a4.335,4.335,0,0,0-2.12,2.24c-1.24,2-2.3,4.132-3.723,5.985s-0.806,3.427.063,5.078c0.477,0.907,1.027.954,1.67-.023A29.333,29.333,0,0,1,56.607,27.8c0.331,1.415.3,2.7,0.725,3.91a1.108,1.108,0,0,0,1.207.946c0.694-.1.379-0.752,0.377-1.148a14.713,14.713,0,0,0-.2-2.611,4.857,4.857,0,0,1,.909-4.046c0.556-.735.961-1.58,1.49-2.338A0.958,0.958,0,0,0,61.187,21.136Zm-5.8,4.142c0.432-1.063.786-1.8,1.023-2.569a0.542,0.542,0,0,1,1.067.177C57.451,24.074,56.9,24.863,55.384,25.278Zm42.657-20.2c-1.515.468-3.025,0.954-4.524,1.471-0.383.132-.681,0.289-0.852-0.326,1.728-.277,2.426-1.483,2.759-3.055-1.018-.259-1.807-0.247-2.389.8a10.9,10.9,0,0,1-1.679,2.006,1.313,1.313,0,0,1-1.441.651c-0.487-.159-1.117-0.4-1.375.22-0.3.72,0.888,0.373,0.879,1.021-0.4.663-1.31,0.5-2.113,1.171,1.418,0.458,2.677-1.237,3.743.187-0.494.366,0.119,2.19-1.653,1.285a0.317,0.317,0,0,0-.473.228,0.439,0.439,0,0,0,.17.368c1.069,0.326.4,0.867,0.169,1.333-0.34.687-.7,1.364-1.062,2.04A0.889,0.889,0,0,0,88.45,15.6c0.431,0.414.728-.006,1.036-0.275,0.7-.609,1.435-1.178,2.1-1.824,0.233-.228.707-0.313,0.512-0.94-0.335-1.078.435-1.619,1.455-2.263,0,0.752,0,1.249,0,1.747,0.014,1.318,1.106,2.088,2.065,1.277,1.993-1.684,3.979-3.478,4.748-6.1A1.718,1.718,0,0,0,98.042,5.081ZM96.638,10c-0.873.535-1.91-.548-2.625-1.176s0.269-1.057.649-1.423a6.172,6.172,0,0,1,2.963-1.536c0.524-.117,1.21-0.175,1.226.853C98.192,7.8,97.773,9.309,96.638,10Zm49.19,3.561a1.951,1.951,0,0,1-2.347-.416,3.216,3.216,0,0,1-.839,2.293c-0.516.6-1.1,0.922-1.785,0.1-0.52-.627-1.31-1.046-0.355-2A56.568,56.568,0,0,1,144.977,10a1.543,1.543,0,0,0-.927-0.745l-0.178-.005c-2.918,1.723-5.608,4.113-9.441,3.12a0.9,0.9,0,0,0-1.2.432c-0.169.622,0.481,0.638,0.892,0.805,1.27,0.514,2.644.138,3.891,0.388a0.6,0.6,0,0,1-.2.749,107.778,107.778,0,0,1-12.368,15.363c-0.57.6-1.149,1.19-1.675,1.825a1.46,1.46,0,0,0-.1,1.855c0.553,0.528.915-.349,1.241-0.689a95.186,95.186,0,0,0,7.543-9.559,12.148,12.148,0,0,1,6.053-4.767c0.428-.137.9-0.5,1.154,0.12A0.884,0.884,0,0,1,139,20.082a8.447,8.447,0,0,0-1.37.718,0.855,0.855,0,0,0-.23,1.338c0.425,0.57.7-.045,1-0.2a15.6,15.6,0,0,1,5.609-1.565c0.585-.059,1.051-0.09,1.039.691a0.767,0.767,0,0,1-.874.93,31.491,31.491,0,0,0-6.147,1.324c0.869,2.448,2.18-.03,3.408.363a6.292,6.292,0,0,1-2.36,2.635c-0.3-.153-0.324,0-0.279.243a3.163,3.163,0,0,1-1.6,2.6,33.155,33.155,0,0,0-3.7,3.52c-0.362.376-.948,0.952-0.492,1.426,0.5,0.523,1.02-.2,1.363-0.506a20.6,20.6,0,0,1,4.016-3.33,7.558,7.558,0,0,1,2.252-1.475c0.049-.631-1.259.053-0.891-0.93a1.194,1.194,0,0,1,1.35-.659c1.293-.112-0.29,1,0.485,1.071,0.9-.264,1.7-0.971,3.193-0.5-2.114,1.34-3.7,2.984-6.241,2.659h0c0.281,1.49.979,2,2.378,1.058a8.931,8.931,0,0,1,1.4-.632c1.78-.787,2.26-0.535,2.7,1.414,0.3,1.336.628,1.437,1.809,0.68a6.406,6.406,0,0,0,.942-1.195c-0.694-.616-1.364-1.257-2.085-1.836-0.648-.521-0.81-0.937-0.085-1.569,0.466-.407,1.376-0.835,1.117-1.469-0.358-.876-1.38-0.316-2.106-0.425a1.523,1.523,0,0,0-.538.053c-1.986-2.445.327-3.231,1.623-4.429a4.808,4.808,0,0,1,.6-0.482,0.806,0.806,0,0,0,.4-1.048,1.046,1.046,0,0,0-.88-0.756c-0.679-.075-1.352-0.2-2.186-0.33a50.858,50.858,0,0,1,4.941-5.184c0.4-.4.663-1.1,1.443-1v-0.62A8.414,8.414,0,0,0,145.828,13.566Zm-7.092,3.858c-0.381.782-1.127,1.026-2.288,1.184,0.628-.88.8-1.819,1.834-1.86A0.55,0.55,0,0,1,138.736,17.424ZM146,15.287a3.494,3.494,0,0,1-2.83,2.068,4.975,4.975,0,0,1,2.305-2.566c0.217-.117.415-0.322,0.644-0.024C146.284,14.989,146.092,15.129,146,15.287Z"/>
  <path id="white" class="cls-1" d="M42.766,22.249a134.222,134.222,0,0,0-14.831-.723,40.076,40.076,0,0,0-6.107.189c-3.908.706-3.123,0.293-6.848,2.446-0.1.06-.183,0-0.183-0.19C14.91,18,27.717,20.053,42.173,20.406a4.376,4.376,0,0,0-.192-1.507,3.093,3.093,0,0,1-.183-0.56c-7.852,0-24-2.179-27.385,2.816-0.079.138-.236,0.293-0.375,0a2.888,2.888,0,0,1,.375-2.067c1.1-1.886,7.372-3.186,18.443-2.816,6.273,0.207,7.738.293,8.183,0a1.706,1.706,0,0,0-.384-1.5l-0.192-.379c-8.506,0-23.555-1.137-27,3.565a0.387,0.387,0,0,1-.358.121,0.383,0.383,0,0,1-.192-0.379c0.061-2.764,2.015-3.04,4.179-3.746,4.362-1.447,10.356-1.326,15.782-1.318,1.535,0,4.938.112,6.849,0a3.54,3.54,0,0,0-.759-1.877c-7.381,0-14.465-1.051-21.68,1.318-4,1.309-4.772,3.014-5.13,3.376-0.114.215-1.745-6.028,11.027-6.028,1.2,0,10.05-.181,14.831-0.37a3.052,3.052,0,0,0-.925-1.826c-6.046,0-15.2-.155-19.778,1.5A10.9,10.9,0,0,0,11.6,12.672c0.271,0.491-1.4-1.722.951-3.944,4.3-4.039,18.809-3.376,19.019-3.376,0.079,0,.07-0.112,0-0.189C31.032,4.611,29.357,1.029,21.3.1A23.1,23.1,0,0,0,11.8,1.408C5.078,3.518-2.46,12.991.768,23.558a19.165,19.165,0,0,0,11.411,12.2C23.154,40.2,34.47,32.11,36.511,23.937c2.347,0,4.414.431,6.465,0.56A6.31,6.31,0,0,0,42.766,22.249ZM22.8,26.555c0,0.448-4.72,1.361-5.9-1.128,0.2-1.921,3.708-2.153,5.9-2.067v3.2Zm38.141,7.8c-0.9-.888-0.227-1.553.134-2.16q2.62-4.4,5.332-8.754c0.406-.654.828-1.131-0.4-1.306a0.847,0.847,0,0,1-.732-1.236c0.346-1.176,1.192-2.458-.344-3.518a1.089,1.089,0,0,1-.033-1.03,4.533,4.533,0,0,0,.306-3.831c1.376,0.769,1.976,1.539,1.2,2.927-0.3.537-.912,1.282,0.407,1.619,0.743,0.19.686,0.917,0.351,1.54q-0.214.4-.415,0.806c-0.664,1.336-.062,2.241,1.473,2.233a0.65,0.65,0,0,0,.692-0.659,81.536,81.536,0,0,1,3.4-11.62,1.1,1.1,0,0,0-.256-0.938c-0.984,1.044-1.96,2.1-2.959,3.125a1.787,1.787,0,0,1-1.1.8,1.443,1.443,0,0,1-1.529-.513c-0.272-.5.208-0.834,0.542-1.157a21.861,21.861,0,0,1,5.6-3.745,1.3,1.3,0,0,1,1.656.309c0.547,0.512.2,0.848-.013,1.321a47.563,47.563,0,0,0-3.8,13.5c-0.206,1.646-.55,1.859-2.105,1.442-0.918-.246-0.995.552-1.257,1.028A70.193,70.193,0,0,1,60.937,34.357Zm6.942-7.642a10.552,10.552,0,0,1,2.26,3.6,1.491,1.491,0,0,0,1.858.9c3.588-.579,4.512-2.08,4.1-5.9a7.294,7.294,0,0,1-.01-0.93c0.005-.255,0-0.541.375-0.531a0.516,0.516,0,0,1,.532.463c0.311,1.82.612,3.641,0.926,5.46a0.872,0.872,0,0,1-.612.955c-2.138,1.152-4.521,1.311-6.859,1.6a1.314,1.314,0,0,1-1.162-.925A13.6,13.6,0,0,1,67.879,26.715ZM144.05,9.258l-0.178-.005c-1.109-1.009-1.561.914-2.609,0.469,0.359-1.838-1.415-2.653-2.176-4.018-0.27-.483-1.051-0.9-0.66-1.467a1.572,1.572,0,0,1,2.116-.218,15.078,15.078,0,0,1,2.782,1.6c0.96,0.758,2.353,1.567.764,3.042A1.128,1.128,0,0,0,144.05,9.258ZM56.7,3.98a2.26,2.26,0,0,1,2.406,1.453c0.554,1.042-.577,1.75-0.684,2.689-0.031.276-.512,0.193-0.824,0.1a10.584,10.584,0,0,1-4.257-2.677c-0.433-.411-0.666-0.83.29-0.982A13.549,13.549,0,0,1,56.7,3.98Zm5.8,8.952a1.625,1.625,0,0,1,1.132,1.6c0.212,2.345.542,4.679,0.819,7.019,0.048,0.407.066,0.817,0.082,1.226a0.679,0.679,0,0,1-.507.686c-0.407.128-.515-0.271-0.646-0.52A14.974,14.974,0,0,1,62.1,15.915,20.739,20.739,0,0,1,62.509,12.932Zm21.574-4.37A22.364,22.364,0,0,1,87.3,15c0.086,0.316.108,0.761-.455,0.774s-1.179.111-1.4-.622a23.807,23.807,0,0,1-.888-3.236C84.4,10.817,84.144,9.748,84.082,8.562Zm-1.968,3.565c1.276,0.879,2.463,4.516,2.089,5.753a0.829,0.829,0,0,1-.781.575,1.214,1.214,0,0,1-1.075-1.127c-0.064-.971-0.008-1.948-0.031-2.922A5.083,5.083,0,0,0,82.115,12.127Zm56.958,14.188-0.279.243a1.78,1.78,0,0,0-2.5.763,2.51,2.51,0,0,1-.738.78c-0.428.3-.742,1.312-1.43,0.5a1.454,1.454,0,0,1,.08-2.2,13.824,13.824,0,0,1,2.426-1.281,1.6,1.6,0,0,1,.568-0.042C137.165,26.475,138.562,25.732,139.073,26.315ZM113.406,8.167c1.283-1.565,2.578-3.121,3.843-4.7,0.569-.711,1.083-0.171,1.441.125a1.05,1.05,0,0,1-.042,1.639,3.459,3.459,0,0,1-1.208.621A14.464,14.464,0,0,0,113.406,8.167ZM97.787,14.889a4.978,4.978,0,0,0-2.133.172c-4.309,1.256-7.774,3.861-11.12,6.688-0.328.277-.6,1.158-1.288,0.43-0.33-.35-0.532-0.127-0.763.072-1.372,1.183-2.4,2.538-2.214,4.483,0.028,0.292-.066.64,0.409,0.683a0.628,0.628,0,0,0,.795-0.536,1.949,1.949,0,0,1,1.145-1.568c1.372-.467,2.119-1.594,3.049-2.511a58.459,58.459,0,0,1,5.618-4.855,1.79,1.79,0,0,1,2.415-.283,10.771,10.771,0,0,0-3.516,3.129,31.628,31.628,0,0,0-2.966,5.5c-0.245.6-.259,1.054,0.332,1.255,0.626,0.213.455-.525,0.609-0.787A17.453,17.453,0,0,0,89.1,24.5c0.193-.473.1-1.425,0.833-1.188,1.009,0.327.162,1.1,0.067,1.675a2.149,2.149,0,0,1-.223.561c-0.426.878-.961,1.741,0.424,2.333,0.4,0.17.265,0.606,0.044,0.939-0.4.594-.8,1.185-1.171,1.791-1.008,1.628-2.76,2.645-3.632,4.382h2.183c1.135-1.513,2.387-2.438,4.4-1.338a13.228,13.228,0,0,0,2.93.881c0.712,0.191,2.159-1,1.78-1.422-0.754-.837-0.307-1.631-0.217-2.462,0.031-.288.156-0.694-0.185-0.832-0.511-.207-0.541.321-0.709,0.6a2.851,2.851,0,0,0-.424.821c-0.313,1.534-1.15,1.913-2.569,1.289a7.568,7.568,0,0,0-1.494-.336,0.374,0.374,0,0,1-.419-0.308c-0.249-1.2,1.622-3.271,2.755-2.912a1.255,1.255,0,0,0,1.825-1.03c0.6-2.37,1.246-4.739,1.65-7.145,0.361-2.151.027-2.376-2.2-2.276a0.914,0.914,0,0,1-.3-0.232c0.794-1.238,2.213-1.367,3.392-1.857,0.413-.172.745-0.171,0.721-0.737A0.8,0.8,0,0,0,97.787,14.889Zm-2.4,4.978a48.136,48.136,0,0,1-2.214,7.039c-0.291.707-.434,1.209-1.437,0.357-1.224-1.039-1.475-1.778-.373-2.944A1.057,1.057,0,0,0,91.2,22.6c-0.721-.54-0.342-0.96-0.037-1.531C92.132,19.258,93.745,19.8,95.385,19.868Zm25.572,11.706c-0.355-1.588-1.609-.78-2.5-0.914-1-.15-2.747.379-2.859-0.239-0.206-1.129.7-2.346,1.414-3.4a5.046,5.046,0,0,1,.659-0.657c1.664-1.672,1.514-2.67-.745-3.568-1-.4-1.034-0.8-0.743-1.679A2.544,2.544,0,0,1,117.6,19.6c1.02-.515,1.5-1.157.967-2.351-0.378-.847-0.2-2.318-1.381-2.24-0.806.053-1.245,1.362-1.418,2.314-0.5,2.729-2.617,4.052-4.668,5.442a0.66,0.66,0,0,1-.855.072,0.788,0.788,0,0,1-.09-0.866c0.309-1.128.666-2.246,0.9-3.389a2.769,2.769,0,0,1,1.628-2.045,33.536,33.536,0,0,0,7.462-5.45,1.573,1.573,0,0,0,.228-2.316c-0.77-1.032-1.6-1.528-2.981-.795-2.476,1.316-3.729,3.616-5.158,5.806-0.438.671-.635,1.521-1.488,1.891a55.472,55.472,0,0,0-9.5,5.63,1.063,1.063,0,0,1-.968.316c-1.02-.3-1.256.805-1.944,1.134-0.381.182,0.171,0.591,0.407,0.811,0.7,0.647,1.225,0,1.761-.3,1.292-.735,2.56-1.51,3.839-2.268,1.933-1.146,3.868-2.29,6-3.555-0.405,1.568-.646,2.817-1.063,4.006a1.982,1.982,0,0,0,.414,2.124c0.572,0.636,1.269.1,1.883-.061,1.264-.338,2.227-1.291,3.428-1.906a2.706,2.706,0,0,1-.258,1.606c-0.651,1.905-2.838,3.583-.971,5.9a0.413,0.413,0,0,1-.054.292,2.365,2.365,0,0,0,.845,3.106c0.8,0.629.611,1.094-.351,1.333a5,5,0,0,0-.807.354c2.74,0.227,4.978-1.154,7.388-1.958C121.348,32.058,121.011,31.815,120.957,31.574Zm-4.623-21.069a1.372,1.372,0,0,1,1.633-.517c0.547,0.259.914,0.558,0.364,1.123a15.593,15.593,0,0,1-4.944,3.171A12.522,12.522,0,0,1,116.334,10.505ZM61.187,21.136c-0.471-.441-0.783.1-1.158,0.319-0.4.228-.683,0.832-1.376,0.462,0.8-2.858,1.665-5.691,1.435-8.724a1.9,1.9,0,0,0-1.281-2.009,1.734,1.734,0,0,0-1.985.806,22.532,22.532,0,0,1-5.687,5.2c-1.309.727-.988,1.348-0.316,2.1,0.785,0.883,1.653,1.535,2.85.466a8.026,8.026,0,0,0,1.419-1.4c0.632-.928,1.284-1.846,1.978-2.729,0.323-.411.8-0.843,1.181-0.05,0.412,0.853-.609,4.08-1.553,4.426a4.335,4.335,0,0,0-2.12,2.24c-1.24,2-2.3,4.132-3.723,5.985s-0.806,3.427.063,5.078c0.477,0.907,1.027.954,1.67-.023A29.333,29.333,0,0,1,56.607,27.8c0.331,1.415.3,2.7,0.725,3.91a1.108,1.108,0,0,0,1.207.946c0.694-.1.379-0.752,0.377-1.148a14.713,14.713,0,0,0-.2-2.611,4.857,4.857,0,0,1,.909-4.046c0.556-.735.961-1.58,1.49-2.338A0.958,0.958,0,0,0,61.187,21.136Zm-5.8,4.142c0.432-1.063.786-1.8,1.023-2.569a0.542,0.542,0,0,1,1.067.177C57.451,24.074,56.9,24.863,55.384,25.278Zm42.657-20.2c-1.515.468-3.025,0.954-4.524,1.471-0.383.132-.681,0.289-0.852-0.326,1.728-.277,2.426-1.483,2.759-3.055-1.018-.259-1.807-0.247-2.389.8a10.9,10.9,0,0,1-1.679,2.006,1.313,1.313,0,0,1-1.441.651c-0.487-.159-1.117-0.4-1.375.22-0.3.72,0.888,0.373,0.879,1.021-0.4.663-1.31,0.5-2.113,1.171,1.418,0.458,2.677-1.237,3.743.187-0.494.366,0.119,2.19-1.653,1.285a0.317,0.317,0,0,0-.473.228,0.439,0.439,0,0,0,.17.368c1.069,0.326.4,0.867,0.169,1.333-0.34.687-.7,1.364-1.062,2.04A0.889,0.889,0,0,0,88.45,15.6c0.431,0.414.728-.006,1.036-0.275,0.7-.609,1.435-1.178,2.1-1.824,0.233-.228.707-0.313,0.512-0.94-0.335-1.078.435-1.619,1.455-2.263,0,0.752,0,1.249,0,1.747,0.014,1.318,1.106,2.088,2.065,1.277,1.993-1.684,3.979-3.478,4.748-6.1A1.718,1.718,0,0,0,98.042,5.081ZM96.638,10c-0.873.535-1.91-.548-2.625-1.176s0.269-1.057.649-1.423a6.172,6.172,0,0,1,2.963-1.536c0.524-.117,1.21-0.175,1.226.853C98.192,7.8,97.773,9.309,96.638,10Zm49.19,3.561a1.951,1.951,0,0,1-2.347-.416,3.216,3.216,0,0,1-.839,2.293c-0.516.6-1.1,0.922-1.785,0.1-0.52-.627-1.31-1.046-0.355-2A56.568,56.568,0,0,1,144.977,10a1.543,1.543,0,0,0-.927-0.745l-0.178-.005c-2.918,1.723-5.608,4.113-9.441,3.12a0.9,0.9,0,0,0-1.2.432c-0.169.622,0.481,0.638,0.892,0.805,1.27,0.514,2.644.138,3.891,0.388a0.6,0.6,0,0,1-.2.749,107.778,107.778,0,0,1-12.368,15.363c-0.57.6-1.149,1.19-1.675,1.825a1.46,1.46,0,0,0-.1,1.855c0.553,0.528.915-.349,1.241-0.689a95.186,95.186,0,0,0,7.543-9.559,12.148,12.148,0,0,1,6.053-4.767c0.428-.137.9-0.5,1.154,0.12A0.884,0.884,0,0,1,139,20.082a8.447,8.447,0,0,0-1.37.718,0.855,0.855,0,0,0-.23,1.338c0.425,0.57.7-.045,1-0.2a15.6,15.6,0,0,1,5.609-1.565c0.585-.059,1.051-0.09,1.039.691a0.767,0.767,0,0,1-.874.93,31.491,31.491,0,0,0-6.147,1.324c0.869,2.448,2.18-.03,3.408.363a6.292,6.292,0,0,1-2.36,2.635c-0.3-.153-0.324,0-0.279.243a3.163,3.163,0,0,1-1.6,2.6,33.155,33.155,0,0,0-3.7,3.52c-0.362.376-.948,0.952-0.492,1.426,0.5,0.523,1.02-.2,1.363-0.506a20.6,20.6,0,0,1,4.016-3.33,7.558,7.558,0,0,1,2.252-1.475c0.049-.631-1.259.053-0.891-0.93a1.194,1.194,0,0,1,1.35-.659c1.293-.112-0.29,1,0.485,1.071,0.9-.264,1.7-0.971,3.193-0.5-2.114,1.34-3.7,2.984-6.241,2.659h0c0.281,1.49.979,2,2.378,1.058a8.931,8.931,0,0,1,1.4-.632c1.78-.787,2.26-0.535,2.7,1.414,0.3,1.336.628,1.437,1.809,0.68a6.406,6.406,0,0,0,.942-1.195c-0.694-.616-1.364-1.257-2.085-1.836-0.648-.521-0.81-0.937-0.085-1.569,0.466-.407,1.376-0.835,1.117-1.469-0.358-.876-1.38-0.316-2.106-0.425a1.523,1.523,0,0,0-.538.053c-1.986-2.445.327-3.231,1.623-4.429a4.808,4.808,0,0,1,.6-0.482,0.806,0.806,0,0,0,.4-1.048,1.046,1.046,0,0,0-.88-0.756c-0.679-.075-1.352-0.2-2.186-0.33a50.858,50.858,0,0,1,4.941-5.184c0.4-.4.663-1.1,1.443-1v-0.62A8.414,8.414,0,0,0,145.828,13.566Zm-7.092,3.858c-0.381.782-1.127,1.026-2.288,1.184,0.628-.88.8-1.819,1.834-1.86A0.55,0.55,0,0,1,138.736,17.424ZM146,15.287a3.494,3.494,0,0,1-2.83,2.068,4.975,4.975,0,0,1,2.305-2.566c0.217-.117.415-0.322,0.644-0.024C146.284,14.989,146.092,15.129,146,15.287Z"/>
</svg>
