<svg xmlns="http://www.w3.org/2000/svg" width="12" height="13" viewBox="0 0 12 13">
  <metadata><?xpacket begin="﻿" id="W5M0MpCehiHzreSzNTczkc9d"?>
<x:xmpmeta xmlns:x="adobe:ns:meta/" x:xmptk="Adobe XMP Core 5.6-c138 79.159824, 2016/09/14-01:09:01        ">
   <rdf:RDF xmlns:rdf="http://www.w3.org/1999/02/22-rdf-syntax-ns#">
      <rdf:Description rdf:about=""/>
   </rdf:RDF>
</x:xmpmeta>
                                                                                                    
                                                                                                    
                                                                                                    
                                                                                                    
                                                                                                    
                                                                                                    
                                                                                                    
                                                                                                    
                                                                                                    
                                                                                                    
                                                                                                    
                                                                                                    
                                                                                                    
                                                                                                    
                                                                                                    
                                                                                                    
                                                                                                    
                                                                                                    
                                                                                                    
                                                                                                    
                           
<?xpacket end="w"?></metadata>
<defs>
    <style>
      .cls-1 {
        fill: #9397a4;
        fill-rule: evenodd;
      }
    </style>
  </defs>
  <path id="piaosu" class="cls-1" d="M269,1125h0m1,1c0.963,0,1,.04,1,1v9c0,0.96-.037,1-1,1h-1.171a3,3,0,0,0-5.658,0H262c-0.991,0-1-.01-1-1v-9c0-1,0-1,1-1h1.171a3,3,0,0,0,5.658,0H270m0-1h-2a2,2,0,0,1-4,0h-2c-1.541,0-2,.42-2,2v9c0,1.54.452,2,2,2h2a2,2,0,0,1,4,0h2c1.477,0,2-.45,2-2v-9c0-1.54-.512-2-2-2h0Zm-5.5,4a0.5,0.5,0,0,1,.5.5v4a0.5,0.5,0,0,1-1,0v-4A0.5,0.5,0,0,1,264.5,1129Zm3,0a0.5,0.5,0,0,1,.5.5v4a0.5,0.5,0,0,1-1,0v-4A0.5,0.5,0,0,1,267.5,1129Z" transform="translate(-260 -1125)"/>
</svg>
