<?xml version="1.0" encoding="utf-8"?>
<!-- Generator: Adobe Illustrator 23.0.1, SVG Export Plug-In . SVG Version: 6.00 Build 0)  -->
<svg version="1.1" id="图层_1" xmlns="http://www.w3.org/2000/svg" xmlns:xlink="http://www.w3.org/1999/xlink" x="0px" y="0px"
	 viewBox="0 0 28 24" style="enable-background:new 0 0 28 24;" xml:space="preserve">
<style type="text/css">
	.st0{fill-rule:evenodd;clip-rule:evenodd;fill:#FFFFFF;}
</style>
<path id="ico1" class="st0" d="M7,18h18.1c0.5,0,0.9-0.4,0.9-0.9c0.9-3.6,1.5-7.2,2-10.9c0.3-0.9-0.2-1.8-1.1-2.1
	C26.6,4,26.3,4,26.1,4H6.2L5.9,0.9C5.9,0.4,5.5,0,5,0H1C0.4,0,0,0.4,0,1s0.4,1,1,1h3.1l2,15.1C6.2,17.6,6.6,18,7,18z M26.1,6
	c-0.5,4.2-1.4,7.9-1.8,10H7.9L6.5,6H26.1L26.1,6z M8,20c-1.1,0-2,0.9-2,2c0,1.1,0.9,2,2,2c1.1,0,2-0.9,2-2C10,20.9,9.1,20,8,20z
	 M24.1,20c-1.1,0-2,0.9-2,2s0.9,2,2,2s2-0.9,2-2C26.1,20.9,25.2,20,24.1,20z"/>
</svg>
