<svg xmlns="http://www.w3.org/2000/svg" width="27" height="23" viewBox="0 0 27 23">
  <metadata><?xpacket begin="﻿" id="W5M0MpCehiHzreSzNTczkc9d"?>
<x:xmpmeta xmlns:x="adobe:ns:meta/" x:xmptk="Adobe XMP Core 5.6-c138 79.159824, 2016/09/14-01:09:01        ">
   <rdf:RDF xmlns:rdf="http://www.w3.org/1999/02/22-rdf-syntax-ns#">
      <rdf:Description rdf:about=""/>
   </rdf:RDF>
</x:xmpmeta>
                                                                                                    
                                                                                                    
                                                                                                    
                                                                                                    
                                                                                                    
                                                                                                    
                                                                                                    
                                                                                                    
                                                                                                    
                                                                                                    
                                                                                                    
                                                                                                    
                                                                                                    
                                                                                                    
                                                                                                    
                                                                                                    
                                                                                                    
                                                                                                    
                                                                                                    
                                                                                                    
                           
<?xpacket end="w"?></metadata>
<defs>
    <style>
      .cls-1 {
        fill: #fff;
        fill-rule: evenodd;
      }
    </style>
  </defs>
  <path id="ico19" class="cls-1" d="M431.026,2127h17.053a0.951,0.951,0,0,0,.883-0.9,69.218,69.218,0,0,0,2.007-9.92A1.7,1.7,0,0,0,449.1,2114H430.243l-0.362-3.12a0.927,0.927,0,0,0-.843-0.88H425a1,1,0,1,0,0,2h3.131l2.027,14.1A0.934,0.934,0,0,0,431.026,2127Zm18.036-11c-0.542,4.24-1.445,6.88-1.806,9H431.909l-1.425-9h18.578Zm-17.033,13a2,2,0,1,0,2.008,2A2.009,2.009,0,0,0,432.029,2129Zm15.066,0a2,2,0,1,0,2.007,2A2.009,2.009,0,0,0,447.1,2129Z" transform="translate(-424 -2110)"/>
</svg>
