<svg xmlns="http://www.w3.org/2000/svg" width="28" height="24" viewBox="0 0 28 24">
  <metadata><?xpacket begin="﻿" id="W5M0MpCehiHzreSzNTczkc9d"?>
<x:xmpmeta xmlns:x="adobe:ns:meta/" x:xmptk="Adobe XMP Core 5.6-c138 79.159824, 2016/09/14-01:09:01        ">
   <rdf:RDF xmlns:rdf="http://www.w3.org/1999/02/22-rdf-syntax-ns#">
      <rdf:Description rdf:about=""/>
   </rdf:RDF>
</x:xmpmeta>
                                                                                                    
                                                                                                    
                                                                                                    
                                                                                                    
                                                                                                    
                                                                                                    
                                                                                                    
                                                                                                    
                                                                                                    
                                                                                                    
                                                                                                    
                                                                                                    
                                                                                                    
                                                                                                    
                                                                                                    
                                                                                                    
                                                                                                    
                                                                                                    
                                                                                                    
                                                                                                    
                           
<?xpacket end="w"?></metadata>
<defs>
    <style>
      .cls-1 {
        fill-rule: evenodd;
      }
    </style>
  </defs>
  <path id="ico1" class="cls-1" d="M1537.03,44h18.05a0.949,0.949,0,0,0,.88-0.9,109.8,109.8,0,0,0,2.01-10.919A1.7,1.7,0,0,0,1556.1,30h-19.86l-0.36-3.12a0.925,0.925,0,0,0-.84-0.88H1531a1,1,0,1,0,0,2h3.13l2.03,15.1A0.932,0.932,0,0,0,1537.03,44Zm19.03-12c-0.54,4.24-1.44,7.88-1.8,10h-16.35l-1.43-10h19.58Zm-18.03,14a2,2,0,1,0,2.01,2A2.014,2.014,0,0,0,1538.03,46Zm16.07,0a2,2,0,1,0,2,2A2.008,2.008,0,0,0,1554.1,46Z" transform="translate(-1530 -26)"/>
</svg>
