<svg xmlns="http://www.w3.org/2000/svg" width="40" height="44" viewBox="0 0 40 44">
  <metadata><?xpacket begin="﻿" id="W5M0MpCehiHzreSzNTczkc9d"?>
<x:xmpmeta xmlns:x="adobe:ns:meta/" x:xmptk="Adobe XMP Core 5.6-c138 79.159824, 2016/09/14-01:09:01        ">
   <rdf:RDF xmlns:rdf="http://www.w3.org/1999/02/22-rdf-syntax-ns#">
      <rdf:Description rdf:about=""/>
   </rdf:RDF>
</x:xmpmeta>
                                                                                                    
                                                                                                    
                                                                                                    
                                                                                                    
                                                                                                    
                                                                                                    
                                                                                                    
                                                                                                    
                                                                                                    
                                                                                                    
                                                                                                    
                                                                                                    
                                                                                                    
                                                                                                    
                                                                                                    
                                                                                                    
                                                                                                    
                                                                                                    
                                                                                                    
                                                                                                    
                           
<?xpacket end="w"?></metadata>
<defs>
    <style>
      .cls-1 {
        fill: #bdc1cc;
        fill-rule: evenodd;
      }
    </style>
  </defs>
  <path id="ico14" class="cls-1" d="M960.089,4481a2.582,2.582,0,0,1-1.086-.36,32.94,32.94,0,0,0-4.163-2.5c-5.249-3.21-10.86-7.43-13.394-13.68a18.614,18.614,0,0,1-1.448-7.14v-12.33a2.151,2.151,0,0,1,1.267-1.79l18.1-6.07a1.16,1.16,0,0,1,1.086,0l18.1,6.07a2.06,2.06,0,0,1,1.448,1.79v12.33a17.994,17.994,0,0,1-1.448,7.14c-2.534,6.25-8.145,10.47-13.394,13.68-1.448.9-2.715,1.61-4.163,2.5a1.387,1.387,0,0,1-.9.36h0Zm9.442-29.44a1.531,1.531,0,0,0-2.347,0l-8.882,9.91-5.471-6.15a1.531,1.531,0,0,0-2.347,0,2.02,2.02,0,0,0,0,2.63l6.306,7.02a2.032,2.032,0,0,0,.309.48,1.586,1.586,0,0,0,1.017.54,1.488,1.488,0,0,0,1.42-.5,1.877,1.877,0,0,0,.316-0.5l9.642-10.84a1.968,1.968,0,0,0,.037-2.59h0Z" transform="translate(-940 -4437)"/>
</svg>
