<?xml version="1.0" encoding="utf-8"?>
<!-- Generator: Adobe Illustrator 22.0.1, SVG Export Plug-In . SVG Version: 6.00 Build 0)  -->
<svg version="1.1" id="图层_1" xmlns="http://www.w3.org/2000/svg" xmlns:xlink="http://www.w3.org/1999/xlink" x="0px" y="0px"
	 viewBox="0 0 13.7 7.4" style="enable-background:new 0 0 13.7 7.4;" xml:space="preserve">
<style type="text/css">
	.st0{fill:#333333;}
</style>
<path class="st0" d="M13.6,0.1C13.6,0.1,13.6,0.1,13.6,0.1c-0.2-0.2-0.5-0.2-0.7,0l-6,6l-6-6c0,0,0,0,0,0c-0.2-0.2-0.5-0.2-0.7,0
	c-0.2,0.2-0.2,0.5,0,0.7l6.4,6.4c0,0,0,0,0,0c0.2,0.2,0.5,0.2,0.7,0c0,0,0,0,0,0c0,0,0,0,0,0l6.4-6.4C13.7,0.7,13.7,0.3,13.6,0.1z"
	/>
</svg>
