<svg xmlns="http://www.w3.org/2000/svg" width="16" height="16" viewBox="0 0 16 16">
  <metadata><?xpacket begin="﻿" id="W5M0MpCehiHzreSzNTczkc9d"?>
<x:xmpmeta xmlns:x="adobe:ns:meta/" x:xmptk="Adobe XMP Core 5.6-c138 79.159824, 2016/09/14-01:09:01        ">
   <rdf:RDF xmlns:rdf="http://www.w3.org/1999/02/22-rdf-syntax-ns#">
      <rdf:Description rdf:about=""/>
   </rdf:RDF>
</x:xmpmeta>
                                                                                                    
                                                                                                    
                                                                                                    
                                                                                                    
                                                                                                    
                                                                                                    
                                                                                                    
                                                                                                    
                                                                                                    
                                                                                                    
                                                                                                    
                                                                                                    
                                                                                                    
                                                                                                    
                                                                                                    
                                                                                                    
                                                                                                    
                                                                                                    
                                                                                                    
                                                                                                    
                           
<?xpacket end="w"?></metadata>
<defs>
    <style>
      .cls-1 {
        fill: #999;
        fill-rule: evenodd;
      }
    </style>
  </defs>
  <path id="ico32" class="cls-1" d="M268,1084a8,8,0,1,1-8,8A8,8,0,0,1,268,1084Zm0,1a7,7,0,1,1-7,7A7,7,0,0,1,268,1085Zm-0.5,4a0.5,0.5,0,0,1,.5.5v3a0.5,0.5,0,0,1-1,0v-3A0.5,0.5,0,0,1,267.5,1089Zm0,3h4a0.5,0.5,0,0,1,0,1h-4A0.5,0.5,0,0,1,267.5,1092Z" transform="translate(-260 -1084)"/>
</svg>
