<?xml version="1.0" encoding="utf-8"?>
<!-- Generator: Adobe Illustrator 22.0.1, SVG Export Plug-In . SVG Version: 6.00 Build 0)  -->
<svg version="1.1" id="图层_1" xmlns="http://www.w3.org/2000/svg" xmlns:xlink="http://www.w3.org/1999/xlink" x="0px" y="0px"
	 viewBox="0 0 27 27" style="enable-background:new 0 0 27 27;" xml:space="preserve">
<style type="text/css">
	.st0{fill:#FFFFFF;}
</style>
<path class="st0" d="M26.7,25.1l-6.3-6.3c3.7-4.5,3.5-11.2-0.7-15.5c0,0,0,0,0,0c-4.5-4.5-11.8-4.5-16.3,0c-4.5,4.5-4.5,11.8,0,16.3
	c4.2,4.2,10.9,4.5,15.5,0.7l6.3,6.3c0.4,0.4,1.1,0.4,1.5,0C27.1,26.2,27.1,25.6,26.7,25.1z M4.8,18.2c-3.7-3.7-3.7-9.7,0-13.4
	c0,0,0,0,0,0c3.7-3.7,9.7-3.7,13.4,0c3.7,3.7,3.7,9.7,0,13.4S8.5,21.9,4.8,18.2z"/>
</svg>
