<svg xmlns="http://www.w3.org/2000/svg" width="14" height="13" viewBox="0 0 14 13">
  <metadata><?xpacket begin="﻿" id="W5M0MpCehiHzreSzNTczkc9d"?>
<x:xmpmeta xmlns:x="adobe:ns:meta/" x:xmptk="Adobe XMP Core 5.6-c138 79.159824, 2016/09/14-01:09:01        ">
   <rdf:RDF xmlns:rdf="http://www.w3.org/1999/02/22-rdf-syntax-ns#">
      <rdf:Description rdf:about=""/>
   </rdf:RDF>
</x:xmpmeta>
                                                                                                    
                                                                                                    
                                                                                                    
                                                                                                    
                                                                                                    
                                                                                                    
                                                                                                    
                                                                                                    
                                                                                                    
                                                                                                    
                                                                                                    
                                                                                                    
                                                                                                    
                                                                                                    
                                                                                                    
                                                                                                    
                                                                                                    
                                                                                                    
                                                                                                    
                                                                                                    
                           
<?xpacket end="w"?></metadata>
<defs>
    <style>
      .cls-1 {
        fill: #fff;
        fill-rule: evenodd;
      }
    </style>
  </defs>
  <path id="ico31" class="cls-1" d="M404,916.333A2.667,2.667,0,0,1,401.333,919c-0.058,0-.275,0-0.333,0-0.486,1.876-1.124,3.514-3,4v1h2c0.737,0,1-.158,1,0.333s-0.264.667-1,.667h-6c-0.737,0-1-.176-1-0.667s0.263-.333,1-0.333h2v-1c-1.876-.486-2.514-2.124-3-4-0.058,0-.279,0-0.337,0A2.667,2.667,0,0,1,390,916.33a2.233,2.233,0,0,1,2-2.33l0-.667A1.333,1.333,0,0,1,393.33,912h7.336A1.333,1.333,0,0,1,402,913.333V914A2.23,2.23,0,0,1,404,916.333Zm-12.67,0A1.976,1.976,0,0,0,393,918v-3C392.41,915.149,391.332,915.725,391.33,916.333ZM401,915v3a2.757,2.757,0,0,0,2-2C402.99,915.406,401.573,915.155,401,915Z" transform="translate(-390 -912)"/>
</svg>
