<svg xmlns="http://www.w3.org/2000/svg" width="15" height="15" viewBox="0 0 15 15">
  <metadata><?xpacket begin="﻿" id="W5M0MpCehiHzreSzNTczkc9d"?>
<x:xmpmeta xmlns:x="adobe:ns:meta/" x:xmptk="Adobe XMP Core 5.6-c138 79.159824, 2016/09/14-01:09:01        ">
   <rdf:RDF xmlns:rdf="http://www.w3.org/1999/02/22-rdf-syntax-ns#">
      <rdf:Description rdf:about=""/>
   </rdf:RDF>
</x:xmpmeta>
                                                                                                    
                                                                                                    
                                                                                                    
                                                                                                    
                                                                                                    
                                                                                                    
                                                                                                    
                                                                                                    
                                                                                                    
                                                                                                    
                                                                                                    
                                                                                                    
                                                                                                    
                                                                                                    
                                                                                                    
                                                                                                    
                                                                                                    
                                                                                                    
                                                                                                    
                                                                                                    
                           
<?xpacket end="w"?></metadata>
<defs>
    <style>
      .cls-1 {
        fill: #fff;
        fill-rule: evenodd;
      }
    </style>
  </defs>
  <path id="ico40" class="cls-1" d="M550,3925v8a2,2,0,0,0,2,2H560a2.005,2.005,0,0,0,2-2v-8a2,2,0,0,0-2-2H552A2.005,2.005,0,0,0,550,3925Zm0.988-.3a0.716,0.716,0,0,1,.712-0.71h8.6a0.715,0.715,0,0,1,.712.71v8.6a0.716,0.716,0,0,1-.712.71h-8.6a0.715,0.715,0,0,1-.712-0.71v-8.6h0ZM561,3927h2a0.925,0.925,0,0,1,1.011,1.06v8.27a0.689,0.689,0,0,1-.684.68H555.06A0.876,0.876,0,0,1,554,3936v-1l-1-.26v1.27a2,2,0,0,0,2,1.99H563a2.005,2.005,0,0,0,2-2v-8a2,2,0,0,0-2-2h-2v1Z" transform="translate(-550 -3923)"/>
</svg>
