<svg id="ico53" xmlns="http://www.w3.org/2000/svg" width="186" height="180" viewBox="0 0 186 180">
  <metadata><?xpacket begin="﻿" id="W5M0MpCehiHzreSzNTczkc9d"?>
<x:xmpmeta xmlns:x="adobe:ns:meta/" x:xmptk="Adobe XMP Core 5.6-c138 79.159824, 2016/09/14-01:09:01        ">
   <rdf:RDF xmlns:rdf="http://www.w3.org/1999/02/22-rdf-syntax-ns#">
      <rdf:Description rdf:about=""/>
   </rdf:RDF>
</x:xmpmeta>
                                                                                                    
                                                                                                    
                                                                                                    
                                                                                                    
                                                                                                    
                                                                                                    
                                                                                                    
                                                                                                    
                                                                                                    
                                                                                                    
                                                                                                    
                                                                                                    
                                                                                                    
                                                                                                    
                                                                                                    
                                                                                                    
                                                                                                    
                                                                                                    
                                                                                                    
                                                                                                    
                           
<?xpacket end="w"?></metadata>
<defs>
    <style>
      .cls-1 {
        fill: #ffefb5;
      }

      .cls-2 {
        fill: #fff9e4;
      }

      .cls-3, .cls-6, .cls-7 {
        fill: #f1b600;
      }

      .cls-3, .cls-5, .cls-6, .cls-7 {
        fill-rule: evenodd;
      }

      .cls-4, .cls-5 {
        fill: #fff;
      }

      .cls-6 {
        opacity: 0.3;
      }

      .cls-7 {
        opacity: 0.5;
      }
    </style>
  </defs>
  <ellipse id="椭圆_8" data-name="椭圆 8" class="cls-1" cx="90" cy="165" rx="88" ry="15"/>
  <rect id="矩形_4" data-name="矩形 4" class="cls-2" x="31" y="23" width="118" height="140" rx="9" ry="9"/>
  <path id="矩形_4-2" data-name="矩形 4" class="cls-3" d="M908,1369h98a12,12,0,0,1,12,12v120a12,12,0,0,1-12,12H908a12,12,0,0,1-12-12V1381A12,12,0,0,1,908,1369Zm0,2h98a10,10,0,0,1,10,10v120a10,10,0,0,1-10,10H908a10,10,0,0,1-10-10V1381A10,10,0,0,1,908,1371Z" transform="translate(-867 -1348)"/>
  <rect id="矩形_4-3" data-name="矩形 4" class="cls-4" x="45" y="39" width="90" height="108" rx="5" ry="5"/>
  <path id="矩形_4-4" data-name="矩形 4" class="cls-3" d="M918,1385h78a8,8,0,0,1,8,8v96a8,8,0,0,1-8,8H918a8,8,0,0,1-8-8v-96A8,8,0,0,1,918,1385Zm0,2h78a6,6,0,0,1,6,6v96a6,6,0,0,1-6,6H918a6,6,0,0,1-6-6v-96A6,6,0,0,1,918,1387Z" transform="translate(-867 -1348)"/>
  <path id="椭圆_6" data-name="椭圆 6" class="cls-5" d="M930,1364h54a6,6,0,0,1,6,6v2a6,6,0,0,1-6,6H930a6,6,0,0,1-6-6v-2A6,6,0,0,1,930,1364Zm23-15h8a10,10,0,0,1,10,10v6H943v-6A10,10,0,0,1,953,1349Z" transform="translate(-867 -1348)"/>
  <path id="椭圆_6-2" data-name="椭圆 6" class="cls-3" d="M931,1362h52a9,9,0,0,1,0,18H931A9,9,0,0,1,931,1362Zm23-14h6a12,12,0,0,1,12,12v2H942v-2A12,12,0,0,1,954,1348Zm-23,16h52a7,7,0,0,1,0,14H931A7,7,0,0,1,931,1364Zm23-14h6a10,10,0,0,1,10,10v6H944v-6A10,10,0,0,1,954,1350Zm3,7a6,6,0,1,1-6,6A6,6,0,0,1,957,1357Zm0,2a4,4,0,1,1-4,4A4,4,0,0,1,957,1359Z" transform="translate(-867 -1348)"/>
  <g id="组_1" data-name="组 1">
    <rect id="矩形_4-5" data-name="矩形 4" class="cls-4" x="84" y="56" width="100" height="50" rx="5" ry="5"/>
    <path id="矩形_5" data-name="矩形 5" class="cls-3" d="M956,1402h8a1,1,0,0,1,0,2h-8A1,1,0,0,1,956,1402Zm17,0h8a1,1,0,0,1,0,2h-8A1,1,0,0,1,973,1402Zm16,0h8a1,1,0,0,1,0,2h-8A1,1,0,0,1,989,1402Zm17,0h8a1,1,0,0,1,0,2h-8A1,1,0,0,1,1006,1402Zm16,0h8a1,1,0,0,1,0,2h-8A1,1,0,0,1,1022,1402Zm17,0h8a1,1,0,0,1,0,2h-8A1,1,0,0,1,1039,1402Zm-83,52h8a1,1,0,0,1,0,2h-8A1,1,0,0,1,956,1454Zm17,0h8a1,1,0,0,1,0,2h-8A1,1,0,0,1,973,1454Zm16,0h8a1,1,0,0,1,0,2h-8A1,1,0,0,1,989,1454Zm17,0h8a1,1,0,0,1,0,2h-8A1,1,0,0,1,1006,1454Zm16,0h8a1,1,0,0,1,0,2h-8A1,1,0,0,1,1022,1454Zm17,0h8a1,1,0,0,1,0,2h-8A1,1,0,0,1,1039,1454Zm13-48a1,1,0,0,1,1,1v8a1,1,0,0,1-2,0v-8A1,1,0,0,1,1052,1406Zm0,17a1,1,0,0,1,1,1v8a1,1,0,0,1-2,0v-8A1,1,0,0,1,1052,1423Zm0,16a1,1,0,0,1,1,1v8a1,1,0,0,1-2,0v-8A1,1,0,0,1,1052,1439Zm-102-33a1,1,0,0,1,1,1v8a1,1,0,0,1-2,0v-8A1,1,0,0,1,950,1406Zm0,17a1,1,0,0,1,1,1v8a1,1,0,0,1-2,0v-8A1,1,0,0,1,950,1423Zm0,16a1,1,0,0,1,1,1v8a1,1,0,0,1-2,0v-8A1,1,0,0,1,950,1439Z" transform="translate(-867 -1348)"/>
    <path id="椭圆_7" data-name="椭圆 7" class="cls-3" d="M979,1413a15,15,0,1,1-15,15A15,15,0,0,1,979,1413Zm0,2a13,13,0,1,1-13,13A13,13,0,0,1,979,1415Z" transform="translate(-867 -1348)"/>
    <path id="矩形_17" data-name="矩形 17" class="cls-3" d="M979,1421a1,1,0,0,1,1,1v6a1,1,0,0,1-2,0v-6A1,1,0,0,1,979,1421Zm0,6h8a1,1,0,0,1,0,2h-8A1,1,0,0,1,979,1427Z" transform="translate(-867 -1348)"/>
    <path id="矩形_7" data-name="矩形 7" class="cls-6" d="M1007.5,1420h16a1.5,1.5,0,0,1,0,3h-16A1.5,1.5,0,0,1,1007.5,1420Zm0,13h29a1.5,1.5,0,0,1,0,3h-29A1.5,1.5,0,0,1,1007.5,1433Z" transform="translate(-867 -1348)"/>
  </g>
  <path id="矩形_2" data-name="矩形 2" class="cls-7" d="M868,1473h8a1,1,0,0,1,0,2h-8A1,1,0,0,1,868,1473Zm4-4a1,1,0,0,1,1,1v8a1,1,0,0,1-2,0v-8A1,1,0,0,1,872,1469Z" transform="translate(-867 -1348)"/>
  <path id="矩形_2-2" data-name="矩形 2" class="cls-3" d="M1034,1477h10a1,1,0,0,1,0,2h-10A1,1,0,0,1,1034,1477Zm5-5a1,1,0,0,1,1,1v10a1,1,0,0,1-2,0v-10A1,1,0,0,1,1039,1472Z" transform="translate(-867 -1348)"/>
  <path id="矩形_2-3" data-name="矩形 2" class="cls-3" d="M886.5,1359h10a1.5,1.5,0,0,1,0,3h-10A1.5,1.5,0,0,1,886.5,1359Zm5-5a1.5,1.5,0,0,1,1.5,1.5v10a1.5,1.5,0,0,1-3,0v-10A1.5,1.5,0,0,1,891.5,1354Z" transform="translate(-867 -1348)"/>
</svg>
