<svg id="ico64" xmlns="http://www.w3.org/2000/svg" width="186" height="180" viewBox="0 0 186 180">
  <metadata><?xpacket begin="﻿" id="W5M0MpCehiHzreSzNTczkc9d"?>
<x:xmpmeta xmlns:x="adobe:ns:meta/" x:xmptk="Adobe XMP Core 5.6-c138 79.159824, 2016/09/14-01:09:01        ">
   <rdf:RDF xmlns:rdf="http://www.w3.org/1999/02/22-rdf-syntax-ns#">
      <rdf:Description rdf:about=""/>
   </rdf:RDF>
</x:xmpmeta>
                                                                                                    
                                                                                                    
                                                                                                    
                                                                                                    
                                                                                                    
                                                                                                    
                                                                                                    
                                                                                                    
                                                                                                    
                                                                                                    
                                                                                                    
                                                                                                    
                                                                                                    
                                                                                                    
                                                                                                    
                                                                                                    
                                                                                                    
                                                                                                    
                                                                                                    
                                                                                                    
                           
<?xpacket end="w"?></metadata>
<defs>
    <style>
      .cls-1 {
        fill: #f2f6f8;
      }

      .cls-2 {
        fill: #f5f8f9;
      }

      .cls-3, .cls-6 {
        fill: #d4dee3;
      }

      .cls-3, .cls-5, .cls-6 {
        fill-rule: evenodd;
      }

      .cls-4, .cls-5 {
        fill: #fff;
      }

      .cls-6 {
        opacity: 0.5;
      }
    </style>
  </defs>
  <ellipse id="椭圆_8" data-name="椭圆 8" class="cls-1" cx="90" cy="165" rx="88" ry="15"/>
  <rect id="矩形_4" data-name="矩形 4" class="cls-2" x="31" y="23" width="118" height="140" rx="9" ry="9"/>
  <path id="矩形_4-2" data-name="矩形 4" class="cls-3" d="M908,1452h98a12,12,0,0,1,12,12v120a12,12,0,0,1-12,12H908a12,12,0,0,1-12-12V1464A12,12,0,0,1,908,1452Zm0,2h98a10,10,0,0,1,10,10v120a10,10,0,0,1-10,10H908a10,10,0,0,1-10-10V1464A10,10,0,0,1,908,1454Z" transform="translate(-867 -1431)"/>
  <rect id="矩形_4-3" data-name="矩形 4" class="cls-4" x="45" y="39" width="90" height="108" rx="5" ry="5"/>
  <path id="矩形_4-4" data-name="矩形 4" class="cls-3" d="M918,1468h78a8,8,0,0,1,8,8v96a8,8,0,0,1-8,8H918a8,8,0,0,1-8-8v-96A8,8,0,0,1,918,1468Zm0,2h78a6,6,0,0,1,6,6v96a6,6,0,0,1-6,6H918a6,6,0,0,1-6-6v-96A6,6,0,0,1,918,1470Z" transform="translate(-867 -1431)"/>
  <path id="椭圆_6" data-name="椭圆 6" class="cls-5" d="M930,1447h54a6,6,0,0,1,6,6v2a6,6,0,0,1-6,6H930a6,6,0,0,1-6-6v-2A6,6,0,0,1,930,1447Zm23-15h8a10,10,0,0,1,10,10v6H943v-6A10,10,0,0,1,953,1432Z" transform="translate(-867 -1431)"/>
  <path id="椭圆_6-2" data-name="椭圆 6" class="cls-3" d="M931,1445h52a9,9,0,0,1,0,18H931A9,9,0,0,1,931,1445Zm23-14h6a12,12,0,0,1,12,12v2H942v-2A12,12,0,0,1,954,1431Zm-23,16h52a7,7,0,0,1,0,14H931A7,7,0,0,1,931,1447Zm23-14h6a10,10,0,0,1,10,10v6H944v-6A10,10,0,0,1,954,1433Zm3,7a6,6,0,1,1-6,6A6,6,0,0,1,957,1440Zm0,2a4,4,0,1,1-4,4A4,4,0,0,1,957,1442Z" transform="translate(-867 -1431)"/>
  <g id="组_1" data-name="组 1">
    <rect id="矩形_4-5" data-name="矩形 4" class="cls-4" x="84" y="56" width="100" height="50" rx="5" ry="5"/>
    <path id="矩形_5" data-name="矩形 5" class="cls-3" d="M956,1485h8a1,1,0,0,1,0,2h-8A1,1,0,0,1,956,1485Zm17,0h8a1,1,0,0,1,0,2h-8A1,1,0,0,1,973,1485Zm16,0h8a1,1,0,0,1,0,2h-8A1,1,0,0,1,989,1485Zm17,0h8a1,1,0,0,1,0,2h-8A1,1,0,0,1,1006,1485Zm16,0h8a1,1,0,0,1,0,2h-8A1,1,0,0,1,1022,1485Zm17,0h8a1,1,0,0,1,0,2h-8A1,1,0,0,1,1039,1485Zm-83,52h8a1,1,0,0,1,0,2h-8A1,1,0,0,1,956,1537Zm17,0h8a1,1,0,0,1,0,2h-8A1,1,0,0,1,973,1537Zm16,0h8a1,1,0,0,1,0,2h-8A1,1,0,0,1,989,1537Zm17,0h8a1,1,0,0,1,0,2h-8A1,1,0,0,1,1006,1537Zm16,0h8a1,1,0,0,1,0,2h-8A1,1,0,0,1,1022,1537Zm17,0h8a1,1,0,0,1,0,2h-8A1,1,0,0,1,1039,1537Zm13-48a1,1,0,0,1,1,1v8a1,1,0,0,1-2,0v-8A1,1,0,0,1,1052,1489Zm0,17a1,1,0,0,1,1,1v8a1,1,0,0,1-2,0v-8A1,1,0,0,1,1052,1506Zm0,16a1,1,0,0,1,1,1v8a1,1,0,0,1-2,0v-8A1,1,0,0,1,1052,1522Zm-102-33a1,1,0,0,1,1,1v8a1,1,0,0,1-2,0v-8A1,1,0,0,1,950,1489Zm0,17a1,1,0,0,1,1,1v8a1,1,0,0,1-2,0v-8A1,1,0,0,1,950,1506Zm0,16a1,1,0,0,1,1,1v8a1,1,0,0,1-2,0v-8A1,1,0,0,1,950,1522Z" transform="translate(-867 -1431)"/>
    <path id="椭圆_7" data-name="椭圆 7" class="cls-3" d="M979,1496a15,15,0,1,1-15,15A15,15,0,0,1,979,1496Zm0,2a13,13,0,1,1-13,13A13,13,0,0,1,979,1498Z" transform="translate(-867 -1431)"/>
    <path id="矩形_16" data-name="矩形 16" class="cls-3" d="M969.1,1519.28l18.678-18.68a1.5,1.5,0,1,1,2.122,2.12l-18.678,18.68A1.5,1.5,0,1,1,969.1,1519.28Z" transform="translate(-867 -1431)"/>
    <path id="矩形_7" data-name="矩形 7" class="cls-3" d="M1007.5,1503h16a1.5,1.5,0,0,1,0,3h-16A1.5,1.5,0,0,1,1007.5,1503Zm0,13h29a1.5,1.5,0,0,1,0,3h-29A1.5,1.5,0,0,1,1007.5,1516Z" transform="translate(-867 -1431)"/>
  </g>
  <path id="矩形_2" data-name="矩形 2" class="cls-6" d="M868,1556h8a1,1,0,0,1,0,2h-8A1,1,0,0,1,868,1556Zm4-4a1,1,0,0,1,1,1v8a1,1,0,0,1-2,0v-8A1,1,0,0,1,872,1552Z" transform="translate(-867 -1431)"/>
  <path id="矩形_2-2" data-name="矩形 2" class="cls-3" d="M1034,1560h10a1,1,0,0,1,0,2h-10A1,1,0,0,1,1034,1560Zm5-5a1,1,0,0,1,1,1v10a1,1,0,0,1-2,0v-10A1,1,0,0,1,1039,1555Z" transform="translate(-867 -1431)"/>
  <path id="矩形_2-3" data-name="矩形 2" class="cls-3" d="M886.5,1442h10a1.5,1.5,0,0,1,0,3h-10A1.5,1.5,0,0,1,886.5,1442Zm5-5a1.5,1.5,0,0,1,1.5,1.5v10a1.5,1.5,0,0,1-3,0v-10A1.5,1.5,0,0,1,891.5,1437Z" transform="translate(-867 -1431)"/>
</svg>
