<?xml version="1.0" encoding="utf-8"?>
<!-- Generator: Adobe Illustrator 22.0.1, SVG Export Plug-In . SVG Version: 6.00 Build 0)  -->
<svg version="1.1" id="ico6" xmlns="http://www.w3.org/2000/svg" xmlns:xlink="http://www.w3.org/1999/xlink" x="0px" y="0px"
	 viewBox="0 0 62 64" style="enable-background:new 0 0 62 64;" xml:space="preserve">
<style type="text/css">
	.st0{fill:#FFFFFF;}
</style>
<g>
	<path class="st0" d="M60,9h-9V2c0-1.1-0.9-2-2-2H2C0.9,0,0,0.9,0,2v60c0,1.1,0.9,2,2,2h49h9c1.1,0,2-0.9,2-2V11C62,9.9,61.1,9,60,9
		z M5,60c-0.6,0-1-0.4-1-1V5c0-0.6,0.4-1,1-1h41c0.6,0,1,0.4,1,1v43v12H5z M58,59c0,0.6-0.4,1-1,1h-6V48V13h6c0.6,0,1,0.4,1,1V59z"
		/>
	<polygon class="st0" points="14,18.8 22,28.9 22,29 26,29 26,12 22,12 22,22.5 14,12.4 14,12 10,12 10,29 14,29 	"/>
	<rect x="30" y="22" class="st0" width="11" height="4"/>
	<rect x="10" y="36" class="st0" width="30" height="4"/>
	<rect x="10" y="46" class="st0" width="30" height="4"/>
</g>
</svg>
