<?xml version="1.0" encoding="utf-8"?>
<!-- Generator: Adobe Illustrator 22.0.1, SVG Export Plug-In . SVG Version: 6.00 Build 0)  -->
<svg version="1.1" id="ico8" xmlns="http://www.w3.org/2000/svg" xmlns:xlink="http://www.w3.org/1999/xlink" x="0px" y="0px"
	 viewBox="0 0 76 58" style="enable-background:new 0 0 76 58;" xml:space="preserve">
<style type="text/css">
	.st0{fill:#FFFFFF;}
</style>
<g>
	<path class="st0" d="M74,0H60h-4H20h-4H2C0.9,0,0,0.9,0,2v54c0,1.1,0.9,2,2,2h14h4h36h4h14c1.1,0,2-0.9,2-2V2C76,0.9,75.1,0,74,0z
		 M71,4c0.6,0,1,0.4,1,1v13H60V4H71z M60,22h12v14H60V22z M16,36H4V22h12V36z M5,4h11v14H4V5C4,4.4,4.4,4,5,4z M5,54
		c-0.6,0-1-0.4-1-1V40h12v14H5z M20,54V4h36v50H20z M71,54H60V40h12v13C72,53.6,71.6,54,71,54z"/>
	<polygon class="st0" points="31,21 31,37 45,29 	"/>
</g>
</svg>
