<?xml version="1.0" encoding="utf-8"?>
<!-- Generator: Adobe Illustrator 22.0.1, SVG Export Plug-In . SVG Version: 6.00 Build 0)  -->
<svg version="1.1" id="ico9" xmlns="http://www.w3.org/2000/svg" xmlns:xlink="http://www.w3.org/1999/xlink" x="0px" y="0px"
	 viewBox="0 0 66 69" style="enable-background:new 0 0 66 69;" xml:space="preserve">
<style type="text/css">
	.st0{fill:#FFFFFF;}
</style>
<path class="st0" d="M65.9,24.1c-0.3-1.1-1.3-1.8-2.4-1.8c-0.2,0-0.5,0-0.7,0.1c0,0-0.1,0-0.1,0l-16.2,4.7l-8.4-12.9
	C39.8,12.7,41,10.5,41,8c0-4.4-3.6-8-8-8s-8,3.6-8,8c0,2.5,1.2,4.7,3,6.2L19.7,27L3.2,22.3c-0.2-0.1-0.4-0.1-0.6-0.1
	c-0.2,0-0.4,0-0.6,0.1c-1.3,0.2-2.3,1.5-2,2.9c0,0,0,0.1,0,0.1l7.8,41.4c0.3,1.3,1.5,2.3,2.9,2.3h44.4c1.3,0,3.1-0.9,3.2-2.1
	C58.1,66.6,66,25.3,66,25.3C66,24.9,66,24.5,65.9,24.1z M33,4c2.2,0,4,1.8,4,4c0,1.1-0.5,2.1-1.2,2.8c-0.4,0.4-0.8,0.7-1.3,0.9
	c0,0,0,0-0.1,0c-0.2,0.1-0.5,0.2-0.7,0.2C33.5,12,33.3,12,33,12c-0.3,0-0.5,0-0.8-0.1c0,0-0.1,0-0.1,0c-0.2-0.1-0.5-0.1-0.7-0.2
	c0,0,0,0,0,0c-0.5-0.2-0.9-0.5-1.2-0.8C29.4,10.1,29,9.1,29,8C29,5.8,30.8,4,33,4z M58.1,45.2c-1.1,6-2,10.8-2.6,14.3
	c-0.4,2.5-0.8,4.2-0.9,5.5H11.6l-1.1-6H48v-4H9.7L4.4,26.8l14.2,4l2.8,0.8l1.6-2.5l8.4-13l0.1-0.1l0.1-0.1c0,0,0-0.1,0-0.1
	C32.1,16,32.5,16,33,16c0.5,0,0.9,0,1.4-0.1c0,0,0,0.1,0,0.1l0.3,0.5l0.1,0.1l8.3,12.7l1.6,2.5l2.8-0.8l14-4
	C60.9,30.5,59.5,37.9,58.1,45.2z"/>
</svg>
