<svg xmlns="http://www.w3.org/2000/svg" viewBox="0 0 81.53 73.13"><defs><style>.cls-1,.cls-2{fill:#c42223;}.cls-1{fill-rule:evenodd;}</style></defs><title>资源 2</title><g id="图层_2" data-name="图层 2"><g id="图层_1-2" data-name="图层 1"><path class="cls-1" d="M67,25.84A151.91,151.91,0,0,0,50,25a45.36,45.36,0,0,0-7,.22c-4.48.82-3.58.34-7.85,2.84-.11.07-.21,0-.21-.22.13-6.93,14.81-4.55,31.38-4.14a5.14,5.14,0,0,0-.22-1.75,3.63,3.63,0,0,1-.21-.65c-9,0-27.51-2.53-31.39,3.27-.09.16-.27.34-.43,0a3.39,3.39,0,0,1,.43-2.4c1.26-2.19,8.45-3.7,21.14-3.27,7.19.24,8.87.34,9.38,0a2,2,0,0,0-.44-1.74l-.22-.44c-9.75,0-27-1.32-30.95,4.14A.44.44,0,0,1,33,21c-.21-.07-.2-.31-.22-.44.07-3.21,2.31-3.53,4.79-4.35,5-1.68,11.87-1.54,18.09-1.53,1.76,0,5.66.13,7.85,0a4.14,4.14,0,0,0-.87-2.18c-8.46,0-16.58-1.22-24.85,1.53-4.58,1.52-5.47,3.5-5.88,3.92-.13.25-2-7,12.64-7,1.38,0,11.52-.21,17-.43A3.56,3.56,0,0,0,60.49,8.4c-6.93,0-17.42-.18-22.67,1.74a12.49,12.49,0,0,0-6.54,4.58c.31.57-1.61-2,1.09-4.58,4.93-4.69,21.56-3.92,21.8-3.92.09,0,.08-.13,0-.22C53.55,5.36,51.63,1.2,42.4.12c-4.56-.54-9,.9-10.9,1.52C23.8,4.09,15.16,15.09,18.86,27.36A22.14,22.14,0,0,0,31.94,41.53c12.58,5.15,25.55-4.24,27.89-13.73,2.69,0,5.06.5,7.41.65A7.42,7.42,0,0,0,67,25.84Zm-22.89,5c0,.52-5.41,1.58-6.76-1.31.23-2.23,4.25-2.5,6.76-2.4Z"/><path class="cls-2" d="M6,62.44c0,.12-.15.3-.28.55s-.38.67-.73,1.26a1.65,1.65,0,0,0-.15.26v3.2c0,.48,0,1,0,1.47s0,1.07,0,1.69a5.91,5.91,0,0,1-.14,1.78c-.11.32-.25.48-.43.48S4.07,73,4,72.78a3,3,0,0,1-.15-1.1V70.52c0-.39,0-.8,0-1.26s0-1,.05-1.53,0-1.23.08-2c-.34.42-.72.86-1.15,1.3s-1,.93-1.58,1.47a1.37,1.37,0,0,1-.77.39A.43.43,0,0,1,0,68.65a.61.61,0,0,1,.07-.51,2.59,2.59,0,0,1,.77-.77A19.4,19.4,0,0,0,3,65.5a8.58,8.58,0,0,0,1.4-2c.17-.36.23-.6.16-.73s-.32-.19-.76-.18-.76,0-1.15.08-.89.11-1.49.21-.85,0-.93-.12.06-.4.43-.74a1.27,1.27,0,0,1,.65-.35,2.53,2.53,0,0,1,.86,0l.55,0,.84,0h1a8.46,8.46,0,0,0,.91-.05.66.66,0,0,1,.61.17C6.12,62,6.11,62.19,6,62.44ZM5,59.6c.28.16.38.33.31.49s-.27.2-.6.11L3.76,60c-.37-.11-.79-.24-1.24-.4s-.69-.35-.75-.56,0-.39.29-.54a1.15,1.15,0,0,1,1.34.07A4.21,4.21,0,0,0,4,59C4.21,59.15,4.53,59.35,5,59.6Zm2.57,8.14a.67.67,0,0,1-.45.16,1.33,1.33,0,0,1-.56-.31,3.15,3.15,0,0,1-.23-.28c-.09-.12-.19-.25-.28-.39a4.94,4.94,0,0,1-.27-.42,1.94,1.94,0,0,1-.16-.34c-.15-.43,0-.56.35-.4a2.52,2.52,0,0,1,.34.2l.48.32c.17.11.33.22.47.33a1.77,1.77,0,0,1,.27.25.92.92,0,0,1,.2.5A.38.38,0,0,1,7.53,67.74ZM13,63c-.06.62-.12,1.15-.19,1.62s-.14.89-.23,1.28-.18.78-.28,1.15-.23.75-.38,1.16a7.82,7.82,0,0,1-3.25,3.66,2,2,0,0,1-1.2.4.82.82,0,0,1-.74-.34.45.45,0,0,1,0-.42,1.38,1.38,0,0,1,.6-.44c.41-.19.78-.37,1.1-.56a8.71,8.71,0,0,0,.9-.58,5.4,5.4,0,0,0,.74-.69,6.57,6.57,0,0,0,.65-.87,7.16,7.16,0,0,0,.71-1.41,10.92,10.92,0,0,0,.45-1.55A7.37,7.37,0,0,0,12,63.86a5.53,5.53,0,0,0-.12-1.33q-.2-.75.51-.81c.29,0,.47,0,.55.22A2.46,2.46,0,0,1,13,63Zm3.43-2.42a1.28,1.28,0,0,0-.16.38,2.92,2.92,0,0,0-.08.66c0,.3,0,.72,0,1.25s0,1.22,0,2.09A4.17,4.17,0,0,1,16,66.52c-.13.32-.3.48-.5.48a.35.35,0,0,1-.34-.27,3.63,3.63,0,0,1-.1-1.1v-2.3c0-.33,0-.67,0-1s0-.74,0-1.18a4.81,4.81,0,0,0,0-.73.91.91,0,0,0-.23-.47,1.11,1.11,0,0,0-.5-.24,3.73,3.73,0,0,0-.82-.07c-.47,0-.93,0-1.37,0s-.84,0-1.21.08a.79.79,0,0,0-.56.31,1.9,1.9,0,0,0-.25.84c0,.1,0,.31,0,.61s0,.68,0,1.11,0,.9,0,1.4,0,1,0,1.48a7,7,0,0,1-.05.89,2.23,2.23,0,0,1-.12.52.49.49,0,0,1-.19.26.53.53,0,0,1-.26.06c-.12,0-.23-.12-.35-.36a3.19,3.19,0,0,1-.13-1.37c0-1.21.08-2.15.11-2.84S9,61.39,9,61s0-.66,0-.82a4,4,0,0,0-.09-.5.81.81,0,0,1,.18-.79,1,1,0,0,1,.94-.18l.57.07.63,0H12l1,0c.28,0,.6,0,1,0s.65,0,.9,0a2.14,2.14,0,0,1,1.55.64A.9.9,0,0,1,16.42,60.55ZM19.11,70.8A3.08,3.08,0,0,1,18,72.36a1.82,1.82,0,0,1-1.49.18l-.57-.15-.49-.14L15,72.11l-.58-.19a4.09,4.09,0,0,1-.67-.26,1.14,1.14,0,0,1-.43-.33,1,1,0,0,1-.21-.46,2.65,2.65,0,0,1,0-.66c0-.69.05-1.26.06-1.72s0-.82,0-1.1,0-.49,0-.63a1.91,1.91,0,0,0-.08-.31c-.13-.25-.16-.43-.07-.54s.25-.12.49,0a1.45,1.45,0,0,1,.67.43.86.86,0,0,1,.1.56q-.08.42-.12,1c0,.38-.07.8-.1,1.24a7.6,7.6,0,0,0,0,.91,2.49,2.49,0,0,0,.11.58.76.76,0,0,0,.26.34,1.14,1.14,0,0,0,.43.19,3.69,3.69,0,0,0,1,.14,5.16,5.16,0,0,0,1.1-.09,6.25,6.25,0,0,0,1.05-.28,3.64,3.64,0,0,0,.86-.45c.19-.15.33-.18.41-.1S19.19,70.57,19.11,70.8ZM30.6,66.51A7.88,7.88,0,0,1,30,68.38a6.84,6.84,0,0,1-.77,1.3,8.93,8.93,0,0,1-1.1,1.12,12.11,12.11,0,0,1-1.26.94,8.55,8.55,0,0,1-1.26.67,4.9,4.9,0,0,1-1.16.33,3.8,3.8,0,0,1-1.47,0,1,1,0,0,1-.59-.52c-.11-.22-.12-.37,0-.46a1.06,1.06,0,0,1,.63-.18,12.19,12.19,0,0,0,3.34-.69,4.77,4.77,0,0,0,2.12-1.64,6.6,6.6,0,0,0,.9-1.6,3.66,3.66,0,0,0,.2-1.22,1.09,1.09,0,0,1,.09-.67.86.86,0,0,1,.57-.29c.24,0,.39,0,.45.16A2.09,2.09,0,0,1,30.6,66.51ZM38.35,63a3.14,3.14,0,0,0-.36.65c-.11.27-.27.69-.46,1.26a1.33,1.33,0,0,1-.38.67.57.57,0,0,1-.48.08c-.16,0-.24-.11-.25-.21a.74.74,0,0,1,.06-.34c.08-.26.15-.48.2-.66s.12-.43.19-.75a1.08,1.08,0,0,0-.06-.78,1.27,1.27,0,0,0-.82-.41,8.82,8.82,0,0,0-.91-.14c-.35,0-.76-.07-1.26-.09s-1.07,0-1.74,0l-2.38,0-1.86,0q-.73,0-1.26.06c-.36,0-.67.07-.95.11l-.9.16a2,2,0,0,0-.76.27.86.86,0,0,0-.3.61,4.16,4.16,0,0,0-.06.58c0,.23,0,.47-.05.74a1.19,1.19,0,0,1-.09.48.33.33,0,0,1-.19.18.34.34,0,0,1-.4-.18,1.56,1.56,0,0,1-.2-.66q0-.18,0-.45c0-.18,0-.38,0-.59s0-.43,0-.64,0-.41,0-.58c.05-.43.14-.69.29-.79a1,1,0,0,1,.72,0l.42.07.74,0,1.34,0,2.28-.1,1.88-.07,1.81,0c.63,0,1.33,0,2.09,0l2.71.11a1.9,1.9,0,0,1,1.28.47A.67.67,0,0,1,38.35,63ZM27,60.77c.05.26,0,.42-.13.46s-.26,0-.36-.24c-.29-.59-.52-1-.69-1.36a2.55,2.55,0,0,0-.43-.66.7.7,0,0,1-.22-.58c0-.19.18-.36.46-.52a.78.78,0,0,1,.66-.06c.21.08.32.29.35.63a3.85,3.85,0,0,0,.05.44c0,.2.06.43.1.67s.07.47.11.7A4.4,4.4,0,0,0,27,60.77Zm7.85,4.93a1.21,1.21,0,0,0,0,.33q0,.24,0,.57c0,.22,0,.46,0,.71v.74a1.6,1.6,0,0,1-.16.83c-.11.16-.22.26-.32.27s-.24-.05-.36-.21a1,1,0,0,1-.19-.67c0-.15,0-.33,0-.55s0-.45,0-.69,0-.48,0-.71,0-.41,0-.56a.89.89,0,0,0-.26-.81,1.9,1.9,0,0,0-1-.26c-.78,0-1.54,0-2.28,0l-2.17.1a1.66,1.66,0,0,0-.89.23,1.21,1.21,0,0,0-.29.72,4,4,0,0,0-.07.58c0,.23,0,.46,0,.7s0,.45,0,.64,0,.35,0,.43a1.55,1.55,0,0,1-.1.84.39.39,0,0,1-.34.26.48.48,0,0,1-.41-.23,1.14,1.14,0,0,1-.16-.67c0-.83,0-1.51,0-2s0-1,0-1.39.12-.7.32-.81a1.1,1.1,0,0,1,.8-.07,4.68,4.68,0,0,0,.66.06,9.82,9.82,0,0,0,1.1-.06c.38,0,1,0,1.85-.06l3.08-.09a3,3,0,0,1,.84.05.71.71,0,0,1,.44.29,1,1,0,0,1,.13.57A6,6,0,0,1,34.87,65.7Zm-3.65-7.22c0,.07,0,.16-.06.25s-.05.23-.09.39l-.12.63c0,.25-.1.59-.17,1,0,.22-.12.32-.28.32s-.25-.12-.29-.34c-.12-.66-.21-1.17-.27-1.51s-.1-.64-.13-.89a.83.83,0,0,1,.12-.64.89.89,0,0,1,1.21.13A.89.89,0,0,1,31.22,58.48Zm7.9,13a5.87,5.87,0,0,1-.7.93,2,2,0,0,1-.68.5,1.9,1.9,0,0,1-.8.14,7.55,7.55,0,0,1-1-.12q-.91-.18-2-.48c-.73-.21-1.4-.41-2-.62a1.58,1.58,0,0,1-.85-.6,2,2,0,0,1-.21-1,9.63,9.63,0,0,0-.15-2.37c-.08-.28,0-.46.13-.53a.54.54,0,0,1,.55.11,1.19,1.19,0,0,1,.47.45.76.76,0,0,1,0,.54c0,.13-.06.34-.1.63s-.06.59-.07.93a1.24,1.24,0,0,0,.16.8,1.86,1.86,0,0,0,.94.46,11,11,0,0,0,1.56.29,12.58,12.58,0,0,0,1.62.1,9.06,9.06,0,0,0,1.51-.12,5.44,5.44,0,0,0,1.27-.36c.29-.13.47-.16.53-.09S39.26,71.22,39.12,71.44ZM35.55,59.27,35,59.9c-.29.32-.66.74-1.11,1.27-.12.14-.24.18-.36.11s-.13-.22,0-.44c.24-.5.45-1,.6-1.37A10.83,10.83,0,0,0,34.52,58c.07-.29.17-.46.31-.51s.31,0,.55.18a.93.93,0,0,1,.45.79A1.06,1.06,0,0,1,35.55,59.27ZM60.11,72.14a1.9,1.9,0,0,1-.78.55,1.7,1.7,0,0,1-.87-.06A13.89,13.89,0,0,0,57,72.35c-.54-.08-1.12-.14-1.72-.2s-1.24-.08-1.9-.11-1.31,0-2,0c-1.14,0-2.31.07-3.49.18s-2.5.27-3.92.5a4.12,4.12,0,0,1-1.07.09.25.25,0,0,1-.23-.26.73.73,0,0,1,.19-.46,1.38,1.38,0,0,1,.52-.42,3.1,3.1,0,0,1,.78-.28,3.46,3.46,0,0,1,1,0l.89,0h1.28l1.3,0,.9,0,1.39-.07c0-.22,0-.46,0-.73v-.83l-1.61.12c-.57,0-1.23.12-2,.21a1.7,1.7,0,0,1-.86,0q-.2-.12-.09-.42a1,1,0,0,1,.14-.26.59.59,0,0,1,.25-.15,2,2,0,0,1,.47-.08l.81,0h1.22L51,69V67.63l-1.58.09c-.48,0-.84.06-1.06.09a3.67,3.67,0,0,1-.81.07.72.72,0,0,1-.46-.17.81.81,0,0,1-.21-.4,2.58,2.58,0,0,1-.06-.6c0-.63,0-1.16-.06-1.6s-.06-.75-.09-1a1.28,1.28,0,0,1,.1-1c.14-.17.46-.25,1-.25h1.61l1.69,0c0-.23,0-.46,0-.68s0-.43,0-.64l-1.27.06c-.47,0-.94,0-1.42.1l-1.41.14c-.46,0-.87.11-1.22.17a4.73,4.73,0,0,1-1.11.11.26.26,0,0,1-.25-.31.57.57,0,0,1,.19-.4,1.81,1.81,0,0,1,.5-.33,2.7,2.7,0,0,1,.63-.19,2,2,0,0,1,.59,0,10.64,10.64,0,0,0,1.65.11c.79,0,1.83,0,3.12,0v-.6a5,5,0,0,0,0-.56c-.39,0-.79.07-1.19.09L48.5,60a2.63,2.63,0,0,1-.82,0,.7.7,0,0,1-.38-.18c0-.06,0-.13,0-.2a1.09,1.09,0,0,1,.48-.14c.79-.07,1.46-.15,2-.22s1-.15,1.43-.24a5.87,5.87,0,0,0,1-.29,4.44,4.44,0,0,0,.69-.33,1.57,1.57,0,0,1,.63-.23.79.79,0,0,1,.54.23,1.06,1.06,0,0,1,.35.44.49.49,0,0,1,0,.36.58.58,0,0,1-.31.25,2,2,0,0,1-.54.12l-.8.09-.72.09c0,.19,0,.38,0,.59s0,.42,0,.64c1.4,0,2.53,0,3.41,0s1.58,0,2.09.06a6,6,0,0,1,1,.11.37.37,0,0,1,.27.33.31.31,0,0,1,0,.21.37.37,0,0,1-.21.16,1.3,1.3,0,0,1-.47.09,4,4,0,0,1-.81,0c-.77-.09-1.56-.15-2.39-.19s-1.77-.06-2.83-.08v1.3c.57,0,1.06-.05,1.47-.05a7.76,7.76,0,0,0,.78,0,4.94,4.94,0,0,1,1.25,0,2.05,2.05,0,0,1,.75.25.73.73,0,0,1,.33.41,1,1,0,0,1,0,.48,1.55,1.55,0,0,0-.07.23c0,.08,0,.19,0,.33s-.05.31-.07.52-.05.47-.08.79a4.91,4.91,0,0,1-.13.81,1.26,1.26,0,0,1-.27.53,1.17,1.17,0,0,1-.48.29,2.53,2.53,0,0,1-.74.09H53.67c-.49,0-1,0-1.61,0,0,.23,0,.47,0,.7s0,.47,0,.69l1.09,0,.78,0a14.44,14.44,0,0,1,2.24,0c.39.07.58.19.58.37a.51.51,0,0,1-.05.22.44.44,0,0,1-.24.12,4.35,4.35,0,0,1-.49,0c-.21,0-.5,0-.85,0l-1.65-.06c-.48,0-1,0-1.41,0,0,.29,0,.56,0,.82s0,.51,0,.76c.79,0,1.73,0,2.81,0l4,.14c.45,0,.8,0,1,0a1.09,1.09,0,0,1,.47.11c.08,0,.08.12,0,.21A3.42,3.42,0,0,1,60.11,72.14ZM47.82,65l1.73-.08,1.46,0V63.45h-.93l-1,0a6,6,0,0,0-.75.06.78.78,0,0,0-.39.16.44.44,0,0,0-.16.29,4.43,4.43,0,0,0,0,.52v.2A1.12,1.12,0,0,0,47.82,65Zm3.19.51-1.48,0c-.51,0-1.08.06-1.69.1v.66c0,.18,0,.32,0,.43A.31.31,0,0,0,48,67a.93.93,0,0,0,.4.1,4.37,4.37,0,0,0,.73,0l.79,0,1,0c0-.25,0-.51,0-.76S51,65.73,51,65.48Zm4.42-1.1c0-.18,0-.32,0-.42a.29.29,0,0,0-.13-.25.94.94,0,0,0-.43-.14c-.2,0-.47,0-.83,0l-1,0-1,0v1.39l1.45,0,1.83,0c0-.12,0-.22,0-.31S55.41,64.44,55.43,64.38Zm-.2,1.16-1.68-.06c-.51,0-1,0-1.49,0V67l1.12,0,1,0a2.62,2.62,0,0,0,.55,0,.53.53,0,0,0,.31-.14.53.53,0,0,0,.15-.31,3.54,3.54,0,0,0,0-.52v-.15A1.83,1.83,0,0,1,55.23,65.54Z"/><path class="cls-2" d="M68.64,59.71c.27,0,.65,0,1.16,0h1.71l2,0,2.09,0c.68,0,1.31,0,1.9-.06l1.47,0c.85,0,1.27.1,1.24.44a.61.61,0,0,1-.36.47,1.9,1.9,0,0,1-1.1.12l-1.23,0-1.75,0H71.87l-1.6,0-1,0a5,5,0,0,0-.9.14.92.92,0,0,0-.49.26.85.85,0,0,0-.21.46,4.72,4.72,0,0,0,0,.73,28.55,28.55,0,0,1-.06,3,12,12,0,0,1-.47,2.51,9.19,9.19,0,0,1-1,2.17,10.25,10.25,0,0,1-1.74,2,.78.78,0,0,1-.67.21.63.63,0,0,1-.54-.39.86.86,0,0,1,.05-.65,2.51,2.51,0,0,1,.72-.73,6,6,0,0,0,1.49-1.54,7.31,7.31,0,0,0,.89-1.92,8.73,8.73,0,0,0,.35-2.21,16.14,16.14,0,0,0-.11-2.47,4.2,4.2,0,0,1,0-1.24,1.55,1.55,0,0,1,.37-.76,1.36,1.36,0,0,1,.69-.37A4,4,0,0,1,68.64,59.71Zm5.57,2.95c-.06.22-.11.44-.16.65s-.08.42-.13.63l2-.07,1.25,0c.33,0,.58,0,.75,0h.46a1.65,1.65,0,0,1,.55.08.44.44,0,0,1,.18.33c0,.12-.09.25-.36.4a2.34,2.34,0,0,1-1,.26,11.57,11.57,0,0,1-1.2,0l-1.35-.07a6.34,6.34,0,0,0-.76,0h-.69c0,.16-.06.31-.08.45s0,.27-.08.4c1,.91,1.88,1.7,2.69,2.38S77.89,69.35,78.7,70l.54.36.75.46.72.41a2.64,2.64,0,0,0,.43.2,1,1,0,0,1,.33.15.15.15,0,0,1,0,.22,1.33,1.33,0,0,1-.38.31,6.43,6.43,0,0,1-.87.39,1.36,1.36,0,0,1-1,.06,2.79,2.79,0,0,1-1-1A24.52,24.52,0,0,0,76,68.93a33.68,33.68,0,0,0-2.53-2.33,7.49,7.49,0,0,1-.62,1.61,10.76,10.76,0,0,1-1,1.54,7.68,7.68,0,0,1-1.26,1.34,9,9,0,0,1-1.71,1.08,1.2,1.2,0,0,1-.77.09.87.87,0,0,1-.59-.38c-.21-.29-.26-.51-.16-.65a.73.73,0,0,1,.53-.27,5.9,5.9,0,0,0,1.24-.37,7.58,7.58,0,0,0,1.27-.71,5,5,0,0,0,1.27-1.2A6,6,0,0,0,72.49,67a10.26,10.26,0,0,0,.44-2.09L72,65l-1.16.11c-.38,0-.72.07-1,.08a2.12,2.12,0,0,1-.54,0q-.42-.09-.51-.24c-.06-.1,0-.26.09-.46a1.16,1.16,0,0,1,.71-.5A4.68,4.68,0,0,1,71,63.92c.2,0,.48,0,.82,0s.73,0,1.16,0c0-.21,0-.4,0-.58a2.53,2.53,0,0,0,0-.5,4.4,4.4,0,0,1-.06-1.45c.07-.31.18-.46.34-.46a1,1,0,0,1,.81.49A1.47,1.47,0,0,1,74.21,62.66ZM74,59.12c0,.2,0,.34-.09.41s-.22,0-.35-.08A5.22,5.22,0,0,1,73.1,59a6.57,6.57,0,0,0-.5-.45c-.25-.19-.36-.37-.35-.54s.13-.31.35-.43a.83.83,0,0,1,.62,0,.66.66,0,0,1,.42.34,6.87,6.87,0,0,1,.23.66C74,58.81,74,59,74,59.12Z"/></g></g></svg>