<?xml version="1.0" encoding="utf-8"?>
<!-- Generator: Adobe Illustrator 22.0.1, SVG Export Plug-In . SVG Version: 6.00 Build 0)  -->
<svg version="1.1" id="图层_1" xmlns="http://www.w3.org/2000/svg" xmlns:xlink="http://www.w3.org/1999/xlink" x="0px" y="0px"
	 viewBox="0 0 150 37" style="enable-background:new 0 0 150 37;" xml:space="preserve">
<style type="text/css">
	.st0{fill:#FFFFFF;}
</style>
<path id="red" class="st0" d="M42.8,22.2c-4.9-0.5-9.9-0.8-14.8-0.7c-2-0.1-4.1,0-6.1,0.2c-3.9,0.7-3.1,0.3-6.8,2.4
	c-0.1,0.1-0.2,0-0.2-0.2c0.1-6,12.9-3.9,27.4-3.6c0-0.5,0-1-0.2-1.5c-0.1-0.2-0.1-0.4-0.2-0.6c-7.9,0-24-2.2-27.4,2.8
	c-0.1,0.1-0.2,0.3-0.4,0c-0.1-0.7,0-1.4,0.4-2.1c1.1-1.9,7.4-3.2,18.4-2.8c6.3,0.2,7.7,0.3,8.2,0c0.1-0.5,0-1.1-0.4-1.5l-0.2-0.4
	c-8.5,0-23.6-1.1-27,3.6c-0.1,0.1-0.2,0.1-0.4,0.1c-0.1-0.1-0.2-0.2-0.2-0.4c0.1-2.8,2-3,4.2-3.7c4.4-1.4,10.4-1.3,15.8-1.3
	c1.5,0,4.9,0.1,6.8,0c-0.1-0.7-0.3-1.3-0.8-1.9c-7.4,0-14.5-1.1-21.7,1.3c-4,1.3-4.8,3-5.1,3.4c-0.1,0.2-1.7-6,11-6
	c1.2,0,10-0.2,14.8-0.4c-0.1-0.7-0.4-1.3-0.9-1.8c-6,0-15.2-0.2-19.8,1.5c-2.3,0.7-4.3,2-5.7,3.9c0.3,0.5-1.4-1.7,1-3.9
	c4.3-4,18.8-3.4,19-3.4c0.1,0,0.1-0.1,0-0.2C31,4.6,29.4,1,21.3,0.1c-3.2-0.2-6.5,0.2-9.5,1.3C5.1,3.5-2.5,13,0.8,23.6
	c1.7,5.6,5.9,10.1,11.4,12.2c11,4.4,22.3-3.6,24.3-11.8c2.3,0,4.4,0.4,6.5,0.6C43,23.7,43,23,42.8,22.2z M22.8,26.6
	c0,0.4-4.7,1.4-5.9-1.1c0.2-1.9,3.7-2.2,5.9-2.1V26.6L22.8,26.6z M60.9,34.4c-0.9-0.9-0.2-1.6,0.1-2.2c1.7-2.9,3.5-5.9,5.3-8.8
	c0.4-0.7,0.8-1.1-0.4-1.3c-0.5,0-0.8-0.4-0.8-0.9c0-0.1,0-0.3,0.1-0.4c0.3-1.2,1.2-2.5-0.3-3.5c-0.2-0.3-0.2-0.7,0-1
	c0.7-1.2,0.8-2.6,0.3-3.8c1.4,0.8,2,1.5,1.2,2.9c-0.3,0.5-0.9,1.3,0.4,1.6c0.7,0.2,0.7,0.9,0.4,1.5c-0.1,0.3-0.3,0.5-0.4,0.8
	c-0.7,1.3-0.1,2.2,1.5,2.2c0.4,0,0.7-0.2,0.7-0.6c0,0,0,0,0-0.1c0.8-4,2-7.8,3.4-11.6c0.1-0.3,0-0.7-0.3-0.9c-1,1-2,2.1-3,3.1
	c-0.2,0.4-0.6,0.7-1.1,0.8c-0.6,0.2-1.2,0-1.5-0.5c-0.3-0.5,0.2-0.8,0.5-1.2c1.7-1.5,3.6-2.8,5.6-3.7c0.6-0.3,1.3-0.2,1.7,0.3
	c0.5,0.5,0.2,0.8,0,1.3c-1.9,4.3-3.2,8.8-3.8,13.5c-0.2,1.6-0.6,1.9-2.1,1.4c-0.9-0.2-1,0.6-1.3,1C65.3,28,63.3,31.3,60.9,34.4
	L60.9,34.4z M67.9,26.7c1,1,1.8,2.3,2.3,3.6c0.3,0.7,1.1,1.1,1.9,0.9c3.6-0.6,4.5-2.1,4.1-5.9c0-0.3,0-0.6,0-0.9
	c0-0.3,0-0.5,0.4-0.5c0.3,0,0.5,0.2,0.5,0.5c0.3,1.8,0.6,3.6,0.9,5.5c0.1,0.4-0.2,0.8-0.6,1c-2.1,1.2-4.5,1.3-6.9,1.6
	c-0.5,0-1-0.4-1.2-0.9C68.5,29.9,68.1,28.4,67.9,26.7L67.9,26.7z M144.1,9.3l-0.2,0c-1.1-1-1.6,0.9-2.6,0.5c0.4-1.8-1.4-2.7-2.2-4
	c-0.3-0.5-1.1-0.9-0.7-1.5c0.5-0.6,1.5-0.7,2.1-0.2c1,0.4,1.9,1,2.8,1.6c1,0.8,2.4,1.6,0.8,3C144,8.9,144,9.1,144.1,9.3z M56.7,4
	c1-0.1,2,0.5,2.4,1.5c0.6,1-0.6,1.8-0.7,2.7c0,0.3-0.5,0.2-0.8,0.1c-1.6-0.5-3.1-1.5-4.3-2.7c-0.4-0.4-0.7-0.8,0.3-1
	C54.6,4.3,55.7,4.1,56.7,4z M62.5,12.9c0.7,0.2,1.2,0.9,1.1,1.6c0.2,2.3,0.5,4.7,0.8,7c0,0.4,0.1,0.8,0.1,1.2c0,0.3-0.2,0.6-0.5,0.7
	c-0.4,0.1-0.5-0.3-0.6-0.5c-1-2.2-1.4-4.6-1.3-7C62.2,14.9,62.3,13.9,62.5,12.9L62.5,12.9z M84.1,8.6c1.4,2,2.5,4.1,3.2,6.4
	c0.1,0.3,0.1,0.8-0.5,0.8s-1.2,0.1-1.4-0.6c-0.4-1.1-0.7-2.1-0.9-3.2C84.4,10.8,84.1,9.7,84.1,8.6L84.1,8.6z M82.1,12.1
	c1.3,0.9,2.5,4.5,2.1,5.8c-0.1,0.3-0.4,0.6-0.8,0.6c-0.6-0.1-1-0.5-1.1-1.1c-0.1-1,0-1.9,0-2.9C82.4,13.6,82.4,12.9,82.1,12.1
	L82.1,12.1z M139.1,26.3l-0.3,0.2c-0.8-0.5-1.9-0.2-2.4,0.6c0,0,0,0.1-0.1,0.1c-0.2,0.3-0.4,0.6-0.7,0.8c-0.4,0.3-0.7,1.3-1.4,0.5
	c-0.6-0.5-0.6-1.5-0.1-2.1c0-0.1,0.1-0.1,0.2-0.1c0.8-0.5,1.6-0.9,2.4-1.3c0.2,0,0.4-0.1,0.6,0C137.2,26.5,138.6,25.7,139.1,26.3
	L139.1,26.3z M113.4,8.2c1.3-1.6,2.6-3.1,3.8-4.7c0.6-0.7,1.1-0.2,1.4,0.1c0.4,0.4,0.5,1,0.1,1.5c0,0.1-0.1,0.1-0.2,0.2
	c-0.4,0.3-0.8,0.5-1.2,0.6C116,6.4,114.6,7.2,113.4,8.2z M97.8,14.9c-0.7-0.1-1.4,0-2.1,0.2c-4.3,1.3-7.8,3.9-11.1,6.7
	c-0.3,0.3-0.6,1.2-1.3,0.4c-0.3-0.4-0.5-0.1-0.8,0.1c-1.4,1.2-2.4,2.5-2.2,4.5c0,0.3-0.1,0.6,0.4,0.7c0.3,0.1,0.7-0.1,0.8-0.4
	c0,0,0-0.1,0-0.1c0.1-0.7,0.5-1.3,1.1-1.6c1.4-0.5,2.1-1.6,3-2.5c1.8-1.7,3.6-3.4,5.6-4.9c0.6-0.7,1.7-0.8,2.4-0.3
	c-1.4,0.8-2.6,1.8-3.5,3.1c-1.2,1.7-2.2,3.6-3,5.5c-0.2,0.6-0.3,1.1,0.3,1.3c0.6,0.2,0.5-0.5,0.6-0.8c0.4-0.7,0.7-1.5,0.9-2.3
	c0.2-0.5,0.1-1.4,0.8-1.2c1,0.3,0.2,1.1,0.1,1.7c0,0.2-0.1,0.4-0.2,0.6c-0.4,0.9-1,1.7,0.4,2.3c0.4,0.2,0.3,0.6,0,0.9
	c-0.4,0.6-0.8,1.2-1.2,1.8c-1,1.6-2.8,2.6-3.6,4.4h2.2c1.1-1.5,2.4-2.4,4.4-1.3c0.9,0.4,1.9,0.7,2.9,0.9c0.7,0.2,2.2-1,1.8-1.4
	c-0.8-0.8-0.3-1.6-0.2-2.5c0-0.3,0.2-0.7-0.2-0.8c-0.5-0.2-0.5,0.3-0.7,0.6c-0.2,0.2-0.3,0.5-0.4,0.8c-0.3,1.5-1.2,1.9-2.6,1.3
	c-0.5-0.2-1-0.3-1.5-0.3c-0.2,0-0.4-0.1-0.4-0.3c-0.2-1.2,1.6-3.3,2.8-2.9c0.6,0.3,1.4,0.1,1.7-0.5c0.1-0.2,0.1-0.3,0.1-0.5
	c0.6-2.4,1.2-4.7,1.7-7.1c0.4-2.2,0-2.4-2.2-2.3c-0.1-0.1-0.2-0.1-0.3-0.2c0.8-1.2,2.2-1.4,3.4-1.9c0.4-0.2,0.7-0.2,0.7-0.7
	C98.6,15.3,98.2,14.9,97.8,14.9z M95.4,19.9c-0.6,2.4-1.3,4.8-2.2,7c-0.3,0.7-0.4,1.2-1.4,0.4c-1.2-1-1.5-1.8-0.4-2.9
	c0.4-0.4,0.5-1,0.1-1.5c-0.1-0.1-0.2-0.2-0.3-0.2c-0.7-0.5-0.3-1,0-1.5C92.1,19.3,93.7,19.8,95.4,19.9L95.4,19.9z M121,31.6
	c-0.4-1.6-1.6-0.8-2.5-0.9c-1-0.1-2.7,0.4-2.9-0.2c-0.2-1.1,0.7-2.3,1.4-3.4c0.2-0.2,0.4-0.5,0.7-0.7c1.7-1.7,1.5-2.7-0.7-3.6
	c-1-0.4-1-0.8-0.7-1.7c0.2-0.7,0.7-1.2,1.4-1.5c1-0.5,1.5-1.2,1-2.4c-0.4-0.8-0.2-2.3-1.4-2.2c-0.8,0.1-1.2,1.4-1.4,2.3
	c-0.5,2.7-2.6,4.1-4.7,5.4c-0.2,0.2-0.6,0.3-0.9,0.1c-0.2-0.2-0.2-0.6-0.1-0.9c0.3-1.1,0.7-2.2,0.9-3.4c0.2-0.9,0.8-1.7,1.6-2
	c2.7-1.5,5.2-3.3,7.5-5.4c0.7-0.5,0.8-1.5,0.3-2.2c0,0-0.1-0.1-0.1-0.1c-0.8-1-1.6-1.5-3-0.8c-2.5,1.3-3.7,3.6-5.2,5.8
	c-0.4,0.7-0.6,1.5-1.5,1.9c-3.3,1.6-6.5,3.4-9.5,5.6c-0.2,0.3-0.6,0.4-1,0.3c-1-0.3-1.3,0.8-1.9,1.1c-0.4,0.2,0.2,0.6,0.4,0.8
	c0.7,0.6,1.2,0,1.8-0.3c1.3-0.7,2.6-1.5,3.8-2.3c1.9-1.1,3.9-2.3,6-3.6c-0.4,1.6-0.6,2.8-1.1,4c-0.3,0.7-0.1,1.6,0.4,2.1
	c0.6,0.6,1.3,0.1,1.9-0.1c1.3-0.3,2.2-1.3,3.4-1.9c0.1,0.5,0,1.1-0.3,1.6c-0.7,1.9-2.8,3.6-1,5.9c0,0.1,0,0.2-0.1,0.3
	c-0.6,1.1-0.2,2.5,0.8,3.1c0.8,0.6,0.6,1.1-0.4,1.3c-0.3,0.1-0.5,0.2-0.8,0.4c2.7,0.2,5-1.2,7.4-2C121.3,32.1,121,31.8,121,31.6
	L121,31.6z M116.3,10.5c0.4-0.5,1-0.7,1.6-0.5c0.5,0.3,0.9,0.6,0.4,1.1c-1.4,1.4-3.1,2.4-4.9,3.2C114.1,12.8,115.1,11.6,116.3,10.5
	L116.3,10.5z M61.2,21.1c-0.5-0.4-0.8,0.1-1.2,0.3c-0.4,0.2-0.7,0.8-1.4,0.5c0.8-2.9,1.7-5.7,1.4-8.7c0.1-0.9-0.4-1.7-1.3-2
	c-0.8-0.2-1.6,0.1-2,0.8c-1.6,2-3.5,3.8-5.7,5.2c-1.3,0.7-1,1.3-0.3,2.1c0.8,0.9,1.7,1.5,2.8,0.5c0.5-0.4,1-0.9,1.4-1.4
	c0.6-0.9,1.3-1.8,2-2.7c0.3-0.4,0.8-0.8,1.2-0.1c0.4,0.9-0.6,4.1-1.6,4.4c-1,0.5-1.7,1.3-2.1,2.2c-1.2,2-2.3,4.1-3.7,6
	s-0.8,3.4,0.1,5.1c0.5,0.9,1,1,1.7,0c1.1-2,2.5-3.8,4-5.5c0.3,1.4,0.3,2.7,0.7,3.9c0.1,0.6,0.6,1,1.2,0.9c0.7-0.1,0.4-0.8,0.4-1.1
	c0-0.9-0.1-1.7-0.2-2.6c-0.3-1.4,0-2.9,0.9-4c0.6-0.7,1-1.6,1.5-2.3C61.5,22.2,61.6,21.6,61.2,21.1C61.2,21.2,61.2,21.1,61.2,21.1z
	 M55.4,25.3c0.4-1.1,0.8-1.8,1-2.6c0.1-0.3,0.4-0.5,0.7-0.4c0.3,0.1,0.4,0.3,0.4,0.6C57.5,24.1,56.9,24.9,55.4,25.3L55.4,25.3z
	 M98,5.1c-1.5,0.5-3,1-4.5,1.5c-0.4,0.1-0.7,0.3-0.9-0.3c1.7-0.3,2.4-1.5,2.8-3.1c-1-0.3-1.8-0.2-2.4,0.8c-0.5,0.7-1,1.4-1.7,2
	c-0.3,0.5-0.9,0.8-1.4,0.7c-0.5-0.2-1.1-0.4-1.4,0.2c-0.3,0.7,0.9,0.4,0.9,1C89,8.5,88.1,8.4,87.3,9c1.4,0.5,2.7-1.2,3.7,0.2
	c-0.5,0.4,0.1,2.2-1.7,1.3c-0.2-0.1-0.3,0-0.4,0.1c0,0,0,0.1,0,0.1c0,0.1,0.1,0.3,0.2,0.4c1.1,0.3,0.4,0.9,0.2,1.3
	c-0.3,0.7-0.7,1.4-1.1,2c-0.2,0.4-0.1,0.9,0.2,1.1c0.4,0.4,0.7,0,1-0.3c0.7-0.6,1.4-1.2,2.1-1.8c0.2-0.2,0.7-0.3,0.5-0.9
	c-0.3-1.1,0.4-1.6,1.5-2.3c0,0.8,0,1.2,0,1.7c0,1.3,1.1,2.1,2.1,1.3c2-1.7,4-3.5,4.7-6.1c0.3-0.9-0.2-1.9-1-2.2
	C98.9,4.9,98.4,4.9,98,5.1L98,5.1z M96.6,10c-0.9,0.5-1.9-0.5-2.6-1.2s0.3-1.1,0.6-1.4c0.8-0.8,1.9-1.3,3-1.5
	c0.5-0.1,1.2-0.2,1.2,0.9C98.2,7.8,97.8,9.3,96.6,10z M145.8,13.6c-0.8,0.4-1.8,0.2-2.3-0.4c0,0.8-0.3,1.7-0.8,2.3
	c-0.5,0.6-1.1,0.9-1.8,0.1c-0.5-0.6-1.3-1-0.4-2c1.4-1.3,2.9-2.4,4.5-3.5c-0.2-0.4-0.5-0.6-0.9-0.7l-0.2,0c-2.9,1.7-5.6,4.1-9.4,3.1
	c-0.4-0.2-1,0-1.2,0.4c0,0,0,0,0,0c-0.2,0.6,0.5,0.6,0.9,0.8c1.3,0.5,2.6,0.1,3.9,0.4c0.1,0.3,0,0.6-0.2,0.7
	c-3.6,5.5-7.8,10.6-12.4,15.4c-0.6,0.6-1.1,1.2-1.7,1.8c-0.5,0.5-0.5,1.3-0.1,1.9c0.6,0.5,0.9-0.3,1.2-0.7c2.7-3,5.2-6.2,7.5-9.6
	c1.4-2.2,3.6-3.9,6.1-4.8c0.4-0.1,0.9-0.5,1.2,0.1c0.2,0.5,0,1-0.5,1.1c-0.1,0-0.1,0-0.2,0c-0.5,0.2-0.9,0.4-1.4,0.7
	c-0.4,0.2-0.6,0.7-0.4,1.2c0,0.1,0.1,0.1,0.1,0.2c0.4,0.6,0.7,0,1-0.2c1.8-0.9,3.7-1.4,5.6-1.6c0.6-0.1,1.1-0.1,1,0.7
	c0.1,0.4-0.2,0.8-0.6,0.9c-0.1,0-0.2,0-0.3,0c-2.1,0.2-4.1,0.7-6.1,1.3c0.9,2.4,2.2,0,3.4,0.4c-0.5,1.1-1.3,2-2.4,2.6
	c-0.3-0.2-0.3,0-0.3,0.2c-0.1,1.1-0.7,2.1-1.6,2.6c-1.3,1.1-2.6,2.3-3.7,3.5c-0.4,0.4-0.9,1-0.5,1.4c0.5,0.5,1-0.2,1.4-0.5
	c1.2-1.3,2.5-2.4,4-3.3c0.7-0.6,1.4-1.1,2.3-1.5c0-0.6-1.3,0.1-0.9-0.9c0.2-0.5,0.8-0.8,1.4-0.7c1.3-0.1-0.3,1,0.5,1.1
	c0.9-0.3,1.7-1,3.2-0.5c-2.1,1.3-3.7,3-6.2,2.7l0,0c0.3,1.5,1,2,2.4,1.1c0.4-0.3,0.9-0.5,1.4-0.6c1.8-0.8,2.3-0.5,2.7,1.4
	c0.3,1.3,0.6,1.4,1.8,0.7c0.4-0.4,0.7-0.8,0.9-1.2c-0.7-0.6-1.4-1.3-2.1-1.8c-0.6-0.5-0.8-0.9-0.1-1.6c0.5-0.4,1.4-0.8,1.1-1.5
	c-0.4-0.9-1.4-0.3-2.1-0.4c-0.2,0-0.4,0-0.5,0.1c-2-2.4,0.3-3.2,1.6-4.4c0.2-0.2,0.4-0.3,0.6-0.5c0.4-0.2,0.6-0.6,0.4-1
	c-0.1-0.4-0.5-0.7-0.9-0.8c-0.7-0.1-1.4-0.2-2.2-0.3c1.5-1.8,3.2-3.6,4.9-5.2c0.4-0.4,0.7-1.1,1.4-1v-0.6
	C148.6,12.6,147.1,12.9,145.8,13.6L145.8,13.6z M138.7,17.4c-0.4,0.8-1.1,1-2.3,1.2c0.6-0.9,0.8-1.8,1.8-1.9
	C138.6,16.8,138.8,17.1,138.7,17.4C138.7,17.4,138.7,17.4,138.7,17.4L138.7,17.4z M146,15.3c-0.5,1.1-1.6,1.9-2.8,2.1
	c0.4-1.1,1.3-2,2.3-2.6c0.2-0.1,0.4-0.3,0.6,0C146.3,15,146.1,15.1,146,15.3z"/>
<path id="white" class="st0" d="M42.8,22.2c-4.9-0.5-9.9-0.8-14.8-0.7c-2-0.1-4.1,0-6.1,0.2c-3.9,0.7-3.1,0.3-6.8,2.4
	c-0.1,0.1-0.2,0-0.2-0.2c0.1-6,12.9-3.9,27.4-3.6c0-0.5,0-1-0.2-1.5c-0.1-0.2-0.1-0.4-0.2-0.6c-7.9,0-24-2.2-27.4,2.8
	c-0.1,0.1-0.2,0.3-0.4,0c-0.1-0.7,0-1.4,0.4-2.1c1.1-1.9,7.4-3.2,18.4-2.8c6.3,0.2,7.7,0.3,8.2,0c0.1-0.5,0-1.1-0.4-1.5l-0.2-0.4
	c-8.5,0-23.6-1.1-27,3.6c-0.1,0.1-0.2,0.1-0.4,0.1c-0.1-0.1-0.2-0.2-0.2-0.4c0.1-2.8,2-3,4.2-3.7c4.4-1.4,10.4-1.3,15.8-1.3
	c1.5,0,4.9,0.1,6.8,0c-0.1-0.7-0.3-1.3-0.8-1.9c-7.4,0-14.5-1.1-21.7,1.3c-4,1.3-4.8,3-5.1,3.4c-0.1,0.2-1.7-6,11-6
	c1.2,0,10-0.2,14.8-0.4c-0.1-0.7-0.4-1.3-0.9-1.8c-6,0-15.2-0.2-19.8,1.5c-2.3,0.7-4.3,2-5.7,3.9c0.3,0.5-1.4-1.7,1-3.9
	c4.3-4,18.8-3.4,19-3.4c0.1,0,0.1-0.1,0-0.2C31,4.6,29.4,1,21.3,0.1c-3.2-0.2-6.5,0.2-9.5,1.3C5.1,3.5-2.5,13,0.8,23.6
	c1.7,5.6,5.9,10.1,11.4,12.2c11,4.4,22.3-3.6,24.3-11.8c2.3,0,4.4,0.4,6.5,0.6C43,23.7,43,23,42.8,22.2z M22.8,26.6
	c0,0.4-4.7,1.4-5.9-1.1c0.2-1.9,3.7-2.2,5.9-2.1V26.6L22.8,26.6z M60.9,34.4c-0.9-0.9-0.2-1.6,0.1-2.2c1.7-2.9,3.5-5.9,5.3-8.8
	c0.4-0.7,0.8-1.1-0.4-1.3c-0.5,0-0.8-0.4-0.8-0.9c0-0.1,0-0.3,0.1-0.4c0.3-1.2,1.2-2.5-0.3-3.5c-0.2-0.3-0.2-0.7,0-1
	c0.7-1.2,0.8-2.6,0.3-3.8c1.4,0.8,2,1.5,1.2,2.9c-0.3,0.5-0.9,1.3,0.4,1.6c0.7,0.2,0.7,0.9,0.4,1.5c-0.1,0.3-0.3,0.5-0.4,0.8
	c-0.7,1.3-0.1,2.2,1.5,2.2c0.4,0,0.7-0.2,0.7-0.6c0,0,0,0,0-0.1c0.8-4,2-7.8,3.4-11.6c0.1-0.3,0-0.7-0.3-0.9c-1,1-2,2.1-3,3.1
	c-0.2,0.4-0.6,0.7-1.1,0.8c-0.6,0.2-1.2,0-1.5-0.5c-0.3-0.5,0.2-0.8,0.5-1.2c1.7-1.5,3.6-2.8,5.6-3.7c0.6-0.3,1.3-0.2,1.7,0.3
	c0.5,0.5,0.2,0.8,0,1.3c-1.9,4.3-3.2,8.8-3.8,13.5c-0.2,1.6-0.6,1.9-2.1,1.4c-0.9-0.2-1,0.6-1.3,1C65.3,28,63.3,31.3,60.9,34.4
	L60.9,34.4z M67.9,26.7c1,1,1.8,2.3,2.3,3.6c0.3,0.7,1.1,1.1,1.9,0.9c3.6-0.6,4.5-2.1,4.1-5.9c0-0.3,0-0.6,0-0.9
	c0-0.3,0-0.5,0.4-0.5c0.3,0,0.5,0.2,0.5,0.5c0.3,1.8,0.6,3.6,0.9,5.5c0.1,0.4-0.2,0.8-0.6,1c-2.1,1.2-4.5,1.3-6.9,1.6
	c-0.5,0-1-0.4-1.2-0.9C68.5,29.9,68.1,28.4,67.9,26.7L67.9,26.7z M144.1,9.3l-0.2,0c-1.1-1-1.6,0.9-2.6,0.5c0.4-1.8-1.4-2.7-2.2-4
	c-0.3-0.5-1.1-0.9-0.7-1.5c0.5-0.6,1.5-0.7,2.1-0.2c1,0.4,1.9,1,2.8,1.6c1,0.8,2.4,1.6,0.8,3C144,8.9,144,9.1,144.1,9.3z M56.7,4
	c1-0.1,2,0.5,2.4,1.5c0.6,1-0.6,1.8-0.7,2.7c0,0.3-0.5,0.2-0.8,0.1c-1.6-0.5-3.1-1.5-4.3-2.7c-0.4-0.4-0.7-0.8,0.3-1
	C54.6,4.3,55.7,4.1,56.7,4z M62.5,12.9c0.7,0.2,1.2,0.9,1.1,1.6c0.2,2.3,0.5,4.7,0.8,7c0,0.4,0.1,0.8,0.1,1.2c0,0.3-0.2,0.6-0.5,0.7
	c-0.4,0.1-0.5-0.3-0.6-0.5c-1-2.2-1.4-4.6-1.3-7C62.2,14.9,62.3,13.9,62.5,12.9L62.5,12.9z M84.1,8.6c1.4,2,2.5,4.1,3.2,6.4
	c0.1,0.3,0.1,0.8-0.5,0.8s-1.2,0.1-1.4-0.6c-0.4-1.1-0.7-2.1-0.9-3.2C84.4,10.8,84.1,9.7,84.1,8.6L84.1,8.6z M82.1,12.1
	c1.3,0.9,2.5,4.5,2.1,5.8c-0.1,0.3-0.4,0.6-0.8,0.6c-0.6-0.1-1-0.5-1.1-1.1c-0.1-1,0-1.9,0-2.9C82.4,13.6,82.4,12.9,82.1,12.1
	L82.1,12.1z M139.1,26.3l-0.3,0.2c-0.8-0.5-1.9-0.2-2.4,0.6c0,0,0,0.1-0.1,0.1c-0.2,0.3-0.4,0.6-0.7,0.8c-0.4,0.3-0.7,1.3-1.4,0.5
	c-0.6-0.5-0.6-1.5-0.1-2.1c0-0.1,0.1-0.1,0.2-0.1c0.8-0.5,1.6-0.9,2.4-1.3c0.2,0,0.4-0.1,0.6,0C137.2,26.5,138.6,25.7,139.1,26.3
	L139.1,26.3z M113.4,8.2c1.3-1.6,2.6-3.1,3.8-4.7c0.6-0.7,1.1-0.2,1.4,0.1c0.4,0.4,0.5,1,0.1,1.5c0,0.1-0.1,0.1-0.2,0.2
	c-0.4,0.3-0.8,0.5-1.2,0.6C116,6.4,114.6,7.2,113.4,8.2z M97.8,14.9c-0.7-0.1-1.4,0-2.1,0.2c-4.3,1.3-7.8,3.9-11.1,6.7
	c-0.3,0.3-0.6,1.2-1.3,0.4c-0.3-0.4-0.5-0.1-0.8,0.1c-1.4,1.2-2.4,2.5-2.2,4.5c0,0.3-0.1,0.6,0.4,0.7c0.3,0.1,0.7-0.1,0.8-0.4
	c0,0,0-0.1,0-0.1c0.1-0.7,0.5-1.3,1.1-1.6c1.4-0.5,2.1-1.6,3-2.5c1.8-1.7,3.6-3.4,5.6-4.9c0.6-0.7,1.7-0.8,2.4-0.3
	c-1.4,0.8-2.6,1.8-3.5,3.1c-1.2,1.7-2.2,3.6-3,5.5c-0.2,0.6-0.3,1.1,0.3,1.3c0.6,0.2,0.5-0.5,0.6-0.8c0.4-0.7,0.7-1.5,0.9-2.3
	c0.2-0.5,0.1-1.4,0.8-1.2c1,0.3,0.2,1.1,0.1,1.7c0,0.2-0.1,0.4-0.2,0.6c-0.4,0.9-1,1.7,0.4,2.3c0.4,0.2,0.3,0.6,0,0.9
	c-0.4,0.6-0.8,1.2-1.2,1.8c-1,1.6-2.8,2.6-3.6,4.4h2.2c1.1-1.5,2.4-2.4,4.4-1.3c0.9,0.4,1.9,0.7,2.9,0.9c0.7,0.2,2.2-1,1.8-1.4
	c-0.8-0.8-0.3-1.6-0.2-2.5c0-0.3,0.2-0.7-0.2-0.8c-0.5-0.2-0.5,0.3-0.7,0.6c-0.2,0.2-0.3,0.5-0.4,0.8c-0.3,1.5-1.2,1.9-2.6,1.3
	c-0.5-0.2-1-0.3-1.5-0.3c-0.2,0-0.4-0.1-0.4-0.3c-0.2-1.2,1.6-3.3,2.8-2.9c0.6,0.3,1.4,0.1,1.7-0.5c0.1-0.2,0.1-0.3,0.1-0.5
	c0.6-2.4,1.2-4.7,1.7-7.1c0.4-2.2,0-2.4-2.2-2.3c-0.1-0.1-0.2-0.1-0.3-0.2c0.8-1.2,2.2-1.4,3.4-1.9c0.4-0.2,0.7-0.2,0.7-0.7
	C98.6,15.3,98.2,14.9,97.8,14.9z M95.4,19.9c-0.6,2.4-1.3,4.8-2.2,7c-0.3,0.7-0.4,1.2-1.4,0.4c-1.2-1-1.5-1.8-0.4-2.9
	c0.4-0.4,0.5-1,0.1-1.5c-0.1-0.1-0.2-0.2-0.3-0.2c-0.7-0.5-0.3-1,0-1.5C92.1,19.3,93.7,19.8,95.4,19.9L95.4,19.9z M121,31.6
	c-0.4-1.6-1.6-0.8-2.5-0.9c-1-0.1-2.7,0.4-2.9-0.2c-0.2-1.1,0.7-2.3,1.4-3.4c0.2-0.2,0.4-0.5,0.7-0.7c1.7-1.7,1.5-2.7-0.7-3.6
	c-1-0.4-1-0.8-0.7-1.7c0.2-0.7,0.7-1.2,1.4-1.5c1-0.5,1.5-1.2,1-2.4c-0.4-0.8-0.2-2.3-1.4-2.2c-0.8,0.1-1.2,1.4-1.4,2.3
	c-0.5,2.7-2.6,4.1-4.7,5.4c-0.2,0.2-0.6,0.3-0.9,0.1c-0.2-0.2-0.2-0.6-0.1-0.9c0.3-1.1,0.7-2.2,0.9-3.4c0.2-0.9,0.8-1.7,1.6-2
	c2.7-1.5,5.2-3.3,7.5-5.4c0.7-0.5,0.8-1.5,0.3-2.2c0,0-0.1-0.1-0.1-0.1c-0.8-1-1.6-1.5-3-0.8c-2.5,1.3-3.7,3.6-5.2,5.8
	c-0.4,0.7-0.6,1.5-1.5,1.9c-3.3,1.6-6.5,3.4-9.5,5.6c-0.2,0.3-0.6,0.4-1,0.3c-1-0.3-1.3,0.8-1.9,1.1c-0.4,0.2,0.2,0.6,0.4,0.8
	c0.7,0.6,1.2,0,1.8-0.3c1.3-0.7,2.6-1.5,3.8-2.3c1.9-1.1,3.9-2.3,6-3.6c-0.4,1.6-0.6,2.8-1.1,4c-0.3,0.7-0.1,1.6,0.4,2.1
	c0.6,0.6,1.3,0.1,1.9-0.1c1.3-0.3,2.2-1.3,3.4-1.9c0.1,0.5,0,1.1-0.3,1.6c-0.7,1.9-2.8,3.6-1,5.9c0,0.1,0,0.2-0.1,0.3
	c-0.6,1.1-0.2,2.5,0.8,3.1c0.8,0.6,0.6,1.1-0.4,1.3c-0.3,0.1-0.5,0.2-0.8,0.4c2.7,0.2,5-1.2,7.4-2C121.3,32.1,121,31.8,121,31.6
	L121,31.6z M116.3,10.5c0.4-0.5,1-0.7,1.6-0.5c0.5,0.3,0.9,0.6,0.4,1.1c-1.4,1.4-3.1,2.4-4.9,3.2C114.1,12.8,115.1,11.6,116.3,10.5
	L116.3,10.5z M61.2,21.1c-0.5-0.4-0.8,0.1-1.2,0.3c-0.4,0.2-0.7,0.8-1.4,0.5c0.8-2.9,1.7-5.7,1.4-8.7c0.1-0.9-0.4-1.7-1.3-2
	c-0.8-0.2-1.6,0.1-2,0.8c-1.6,2-3.5,3.8-5.7,5.2c-1.3,0.7-1,1.3-0.3,2.1c0.8,0.9,1.7,1.5,2.8,0.5c0.5-0.4,1-0.9,1.4-1.4
	c0.6-0.9,1.3-1.8,2-2.7c0.3-0.4,0.8-0.8,1.2-0.1c0.4,0.9-0.6,4.1-1.6,4.4c-1,0.5-1.7,1.3-2.1,2.2c-1.2,2-2.3,4.1-3.7,6
	s-0.8,3.4,0.1,5.1c0.5,0.9,1,1,1.7,0c1.1-2,2.5-3.8,4-5.5c0.3,1.4,0.3,2.7,0.7,3.9c0.1,0.6,0.6,1,1.2,0.9c0.7-0.1,0.4-0.8,0.4-1.1
	c0-0.9-0.1-1.7-0.2-2.6c-0.3-1.4,0-2.9,0.9-4c0.6-0.7,1-1.6,1.5-2.3C61.5,22.2,61.6,21.6,61.2,21.1C61.2,21.2,61.2,21.1,61.2,21.1z
	 M55.4,25.3c0.4-1.1,0.8-1.8,1-2.6c0.1-0.3,0.4-0.5,0.7-0.4c0.3,0.1,0.4,0.3,0.4,0.6C57.5,24.1,56.9,24.9,55.4,25.3L55.4,25.3z
	 M98,5.1c-1.5,0.5-3,1-4.5,1.5c-0.4,0.1-0.7,0.3-0.9-0.3c1.7-0.3,2.4-1.5,2.8-3.1c-1-0.3-1.8-0.2-2.4,0.8c-0.5,0.7-1,1.4-1.7,2
	c-0.3,0.5-0.9,0.8-1.4,0.7c-0.5-0.2-1.1-0.4-1.4,0.2c-0.3,0.7,0.9,0.4,0.9,1C89,8.5,88.1,8.4,87.3,9c1.4,0.5,2.7-1.2,3.7,0.2
	c-0.5,0.4,0.1,2.2-1.7,1.3c-0.2-0.1-0.3,0-0.4,0.1c0,0,0,0.1,0,0.1c0,0.1,0.1,0.3,0.2,0.4c1.1,0.3,0.4,0.9,0.2,1.3
	c-0.3,0.7-0.7,1.4-1.1,2c-0.2,0.4-0.1,0.9,0.2,1.1c0.4,0.4,0.7,0,1-0.3c0.7-0.6,1.4-1.2,2.1-1.8c0.2-0.2,0.7-0.3,0.5-0.9
	c-0.3-1.1,0.4-1.6,1.5-2.3c0,0.8,0,1.2,0,1.7c0,1.3,1.1,2.1,2.1,1.3c2-1.7,4-3.5,4.7-6.1c0.3-0.9-0.2-1.9-1-2.2
	C98.9,4.9,98.4,4.9,98,5.1L98,5.1z M96.6,10c-0.9,0.5-1.9-0.5-2.6-1.2s0.3-1.1,0.6-1.4c0.8-0.8,1.9-1.3,3-1.5
	c0.5-0.1,1.2-0.2,1.2,0.9C98.2,7.8,97.8,9.3,96.6,10z M145.8,13.6c-0.8,0.4-1.8,0.2-2.3-0.4c0,0.8-0.3,1.7-0.8,2.3
	c-0.5,0.6-1.1,0.9-1.8,0.1c-0.5-0.6-1.3-1-0.4-2c1.4-1.3,2.9-2.4,4.5-3.5c-0.2-0.4-0.5-0.6-0.9-0.7l-0.2,0c-2.9,1.7-5.6,4.1-9.4,3.1
	c-0.4-0.2-1,0-1.2,0.4c0,0,0,0,0,0c-0.2,0.6,0.5,0.6,0.9,0.8c1.3,0.5,2.6,0.1,3.9,0.4c0.1,0.3,0,0.6-0.2,0.7
	c-3.6,5.5-7.8,10.6-12.4,15.4c-0.6,0.6-1.1,1.2-1.7,1.8c-0.5,0.5-0.5,1.3-0.1,1.9c0.6,0.5,0.9-0.3,1.2-0.7c2.7-3,5.2-6.2,7.5-9.6
	c1.4-2.2,3.6-3.9,6.1-4.8c0.4-0.1,0.9-0.5,1.2,0.1c0.2,0.5,0,1-0.5,1.1c-0.1,0-0.1,0-0.2,0c-0.5,0.2-0.9,0.4-1.4,0.7
	c-0.4,0.2-0.6,0.7-0.4,1.2c0,0.1,0.1,0.1,0.1,0.2c0.4,0.6,0.7,0,1-0.2c1.8-0.9,3.7-1.4,5.6-1.6c0.6-0.1,1.1-0.1,1,0.7
	c0.1,0.4-0.2,0.8-0.6,0.9c-0.1,0-0.2,0-0.3,0c-2.1,0.2-4.1,0.7-6.1,1.3c0.9,2.4,2.2,0,3.4,0.4c-0.5,1.1-1.3,2-2.4,2.6
	c-0.3-0.2-0.3,0-0.3,0.2c-0.1,1.1-0.7,2.1-1.6,2.6c-1.3,1.1-2.6,2.3-3.7,3.5c-0.4,0.4-0.9,1-0.5,1.4c0.5,0.5,1-0.2,1.4-0.5
	c1.2-1.3,2.5-2.4,4-3.3c0.7-0.6,1.4-1.1,2.3-1.5c0-0.6-1.3,0.1-0.9-0.9c0.2-0.5,0.8-0.8,1.4-0.7c1.3-0.1-0.3,1,0.5,1.1
	c0.9-0.3,1.7-1,3.2-0.5c-2.1,1.3-3.7,3-6.2,2.7l0,0c0.3,1.5,1,2,2.4,1.1c0.4-0.3,0.9-0.5,1.4-0.6c1.8-0.8,2.3-0.5,2.7,1.4
	c0.3,1.3,0.6,1.4,1.8,0.7c0.4-0.4,0.7-0.8,0.9-1.2c-0.7-0.6-1.4-1.3-2.1-1.8c-0.6-0.5-0.8-0.9-0.1-1.6c0.5-0.4,1.4-0.8,1.1-1.5
	c-0.4-0.9-1.4-0.3-2.1-0.4c-0.2,0-0.4,0-0.5,0.1c-2-2.4,0.3-3.2,1.6-4.4c0.2-0.2,0.4-0.3,0.6-0.5c0.4-0.2,0.6-0.6,0.4-1
	c-0.1-0.4-0.5-0.7-0.9-0.8c-0.7-0.1-1.4-0.2-2.2-0.3c1.5-1.8,3.2-3.6,4.9-5.2c0.4-0.4,0.7-1.1,1.4-1v-0.6
	C148.6,12.6,147.1,12.9,145.8,13.6L145.8,13.6z M138.7,17.4c-0.4,0.8-1.1,1-2.3,1.2c0.6-0.9,0.8-1.8,1.8-1.9
	C138.6,16.8,138.8,17.1,138.7,17.4C138.7,17.4,138.7,17.4,138.7,17.4L138.7,17.4z M146,15.3c-0.5,1.1-1.6,1.9-2.8,2.1
	c0.4-1.1,1.3-2,2.3-2.6c0.2-0.1,0.4-0.3,0.6,0C146.3,15,146.1,15.1,146,15.3z"/>
</svg>
