<svg xmlns="http://www.w3.org/2000/svg" width="13.81" height="16.062" viewBox="0 0 13.81 16.062">
  <metadata><?xpacket begin="﻿" id="W5M0MpCehiHzreSzNTczkc9d"?>
<x:xmpmeta xmlns:x="adobe:ns:meta/" x:xmptk="Adobe XMP Core 5.6-c138 79.159824, 2016/09/14-01:09:01        ">
   <rdf:RDF xmlns:rdf="http://www.w3.org/1999/02/22-rdf-syntax-ns#">
      <rdf:Description rdf:about=""/>
   </rdf:RDF>
</x:xmpmeta>
                                                                                                    
                                                                                                    
                                                                                                    
                                                                                                    
                                                                                                    
                                                                                                    
                                                                                                    
                                                                                                    
                                                                                                    
                                                                                                    
                                                                                                    
                                                                                                    
                                                                                                    
                                                                                                    
                                                                                                    
                                                                                                    
                                                                                                    
                                                                                                    
                                                                                                    
                                                                                                    
                           
<?xpacket end="w"?></metadata>
<defs>
    <style>
      .cls-1 {
        fill: #f24143;
        fill-rule: evenodd;
      }
    </style>
  </defs>
  <path id="ico23f" class="cls-1" d="M1806,489h-11c-1.02,0-1-.037-1,1v14c0,1.04-.03,1,1,1h7c1.23,0,1.23-1,0-1h-4s-3,0-3,0V490h11v4c0,1.235,1,1.235,1,0v-4C1807,488.962,1807.03,489,1806,489Zm-3.5,6a3.5,3.5,0,1,1-3.5,3.5A3.5,3.5,0,0,1,1802.5,495Zm0,1a2.5,2.5,0,1,1-2.5,2.5A2.5,2.5,0,0,1,1802.5,496Zm2.44,3.732,2.83,2.829-0.71.707-2.83-2.829Z" transform="translate(-1793.97 -488.969)"/>
</svg>
